<svg width="334" height="385" viewBox="0 0 334 385" fill="none" xmlns="http://www.w3.org/2000/svg">
<path fill-rule="evenodd" clip-rule="evenodd" d="M316.633 84.7424C314.934 85.4984 307.822 88.3174 300.829 91.0054C266.458 104.218 229.507 116.01 191.044 126.039C181.456 128.539 170.801 131.573 167.367 132.78C117.81 150.21 73.6157 181.331 59.9482 231.5C54.758 250.552 47.3165 248.904 47 315L59.5 384.5L71 381C131.352 339.115 198.902 298.385 245.5 241.567C273.192 207.804 285.299 155.312 303.636 119.717C310.054 107.26 320.85 84.6154 320.85 83.6104C320.85 83.0354 319.887 83.2944 316.633 84.7424Z" fill="#00684A"/>
<path fill-rule="evenodd" clip-rule="evenodd" d="M153.071 10.9009C131.205 34.6091 98.4719 65.939 72.0503 88.448C50.7602 106.585 46.2262 110.791 39.3154 118.81C14.7255 147.343 1.33619 181.566 0.101957 219.041C-0.66098 242.22 2.83726 262.509 11.2904 283.929C12.5194 287.043 23.9026 311.058 36.5861 337.296L59.6479 385L60.0876 324.893C60.5709 258.822 60.4589 260.511 65.6198 241.566C79.2873 191.397 117.811 150.209 167.367 132.78C170.801 131.572 181.456 128.539 191.044 126.04C212.607 120.42 229.332 115.648 230.117 114.891C230.741 114.29 227.501 104.797 222.801 93.454C216.163 77.433 203.51 54.296 192.821 38.6357C187.166 30.3494 164.623 0.273905 163.865 0.00180499C163.558 -0.107895 158.701 4.79671 153.071 10.9009ZM317.826 90.777C311.789 104.022 296.365 133.918 289.711 145.272C275.007 170.363 251.507 203.918 231.857 227.876C184.122 286.078 125.54 339.77 62.2539 383.322C60.4957 384.532 62.0209 384.6 91.6311 384.638C122.824 384.677 135.433 384.119 151.726 381.978C227.995 371.96 282.143 337.643 311.004 281.033C327.294 249.082 334.478 213.641 333.401 170.537C332.793 146.193 330.911 131.697 323.925 97.542L321.081 83.636L317.826 90.777Z" fill="#00684A"/>
</svg>
