<svg width="1000" height="827" viewBox="0 0 1000 827" fill="none" xmlns="http://www.w3.org/2000/svg">
<path d="M644.161 463.897C674.545 433.313 695.237 394.348 703.621 351.927C712.004 309.507 707.701 265.537 691.257 225.578C674.813 185.619 646.966 151.465 611.237 127.436C575.509 103.407 533.504 90.5815 490.533 90.5815C447.563 90.5815 405.557 103.407 369.829 127.436C334.1 151.465 306.253 185.619 289.809 225.578C273.365 265.537 269.063 309.507 277.446 351.927C285.829 394.348 306.521 433.313 336.906 463.897L348.485 452.242C320.39 423.964 301.258 387.935 293.507 348.712C285.755 309.489 289.733 268.833 304.938 231.886C320.143 194.938 345.891 163.359 378.927 141.141C411.962 118.923 450.802 107.064 490.533 107.064C530.265 107.064 569.104 118.923 602.14 141.141C635.176 163.359 660.924 194.938 676.128 231.886C691.333 268.833 695.311 309.489 687.56 348.712C679.809 387.935 660.676 423.964 632.582 452.242L644.161 463.897Z" fill="#00ED64"/>
<mask id="path-2-inside-1_3_160" fill="white">
<path d="M651.497 470.469C651.497 486.11 638.9 498.789 623.362 498.789C607.823 498.789 595.227 486.11 595.227 470.469C595.227 454.829 607.823 442.15 623.362 442.15C638.9 442.15 651.497 454.829 651.497 470.469ZM610.397 470.469C610.397 477.676 616.202 483.519 623.362 483.519C630.522 483.519 636.326 477.676 636.326 470.469C636.326 463.263 630.522 457.42 623.362 457.42C616.202 457.42 610.397 463.263 610.397 470.469Z"/>
</mask>
<path d="M651.497 470.469C651.497 486.11 638.9 498.789 623.362 498.789C607.823 498.789 595.227 486.11 595.227 470.469C595.227 454.829 607.823 442.15 623.362 442.15C638.9 442.15 651.497 454.829 651.497 470.469ZM610.397 470.469C610.397 477.676 616.202 483.519 623.362 483.519C630.522 483.519 636.326 477.676 636.326 470.469C636.326 463.263 630.522 457.42 623.362 457.42C616.202 457.42 610.397 463.263 610.397 470.469Z" fill="#00ED64" stroke="#00ED64" stroke-width="13.5048" mask="url(#path-2-inside-1_3_160)"/>
<mask id="path-3-inside-2_3_160" fill="white">
<path d="M744.374 538.871C744.374 554.512 731.777 567.19 716.239 567.19C700.7 567.19 688.104 554.512 688.104 538.871C688.104 523.231 700.7 510.552 716.239 510.552C731.777 510.552 744.374 523.231 744.374 538.871ZM703.274 538.871C703.274 546.078 709.079 551.92 716.239 551.92C723.399 551.92 729.203 546.078 729.203 538.871C729.203 531.665 723.399 525.822 716.239 525.822C709.079 525.822 703.274 531.665 703.274 538.871Z"/>
</mask>
<path d="M744.374 538.871C744.374 554.512 731.777 567.19 716.239 567.19C700.7 567.19 688.104 554.512 688.104 538.871C688.104 523.231 700.7 510.552 716.239 510.552C731.777 510.552 744.374 523.231 744.374 538.871ZM703.274 538.871C703.274 546.078 709.079 551.92 716.239 551.92C723.399 551.92 729.203 546.078 729.203 538.871C729.203 531.665 723.399 525.822 716.239 525.822C709.079 525.822 703.274 531.665 703.274 538.871Z" fill="#00ED64" stroke="#00ED64" stroke-width="13.5048" mask="url(#path-3-inside-2_3_160)"/>
<mask id="path-4-inside-3_3_160" fill="white">
<path d="M386.223 470.469C386.223 486.11 373.627 498.789 358.088 498.789C342.55 498.789 329.953 486.11 329.953 470.469C329.953 454.829 342.55 442.15 358.088 442.15C373.627 442.15 386.223 454.829 386.223 470.469ZM345.124 470.469C345.124 477.676 350.928 483.519 358.088 483.519C365.248 483.519 371.052 477.676 371.052 470.469C371.052 463.263 365.248 457.42 358.088 457.42C350.928 457.42 345.124 463.263 345.124 470.469Z"/>
</mask>
<path d="M386.223 470.469C386.223 486.11 373.627 498.789 358.088 498.789C342.55 498.789 329.953 486.11 329.953 470.469C329.953 454.829 342.55 442.15 358.088 442.15C373.627 442.15 386.223 454.829 386.223 470.469ZM345.124 470.469C345.124 477.676 350.928 483.519 358.088 483.519C365.248 483.519 371.052 477.676 371.052 470.469C371.052 463.263 365.248 457.42 358.088 457.42C350.928 457.42 345.124 463.263 345.124 470.469Z" fill="#00ED64" stroke="#00ED64" stroke-width="13.5048" mask="url(#path-4-inside-3_3_160)"/>
<path d="M490.354 442.182V231.407" stroke="#00ED64" stroke-width="20.0965" stroke-linecap="square" stroke-linejoin="round"/>
<path d="M496.382 223.413L525.723 178.006" stroke="#00ED64" stroke-width="20.0965" stroke-linecap="square" stroke-linejoin="round"/>
<path d="M500.001 397.659L595.258 292.091" stroke="#00ED64" stroke-width="20.0965" stroke-linecap="square" stroke-linejoin="round"/>
<path d="M482.052 397.659L386.254 292.091" stroke="#00ED64" stroke-width="20.0965" stroke-linecap="square" stroke-linejoin="round"/>
<path d="M485.932 223.413L452.572 172.342" stroke="#00ED64" stroke-width="20.0965" stroke-linecap="square" stroke-linejoin="round"/>
<path fill-rule="evenodd" clip-rule="evenodd" d="M490.22 131.886L494.639 122.223C492.118 121.071 489.247 120.948 486.638 121.883L490.22 131.886ZM520.499 476.875C530.49 469.985 542.413 460.648 554.349 448.678C584.021 418.92 614.055 372.543 614.055 307.194C614.055 241.846 584.021 195.47 554.349 165.711C539.534 150.853 524.738 140.052 513.631 132.953C508.07 129.398 503.408 126.756 500.099 124.984C498.443 124.098 497.123 123.428 496.195 122.97C495.731 122.741 495.364 122.565 495.103 122.44C494.972 122.378 494.867 122.329 494.79 122.293L494.694 122.248L494.661 122.233L494.649 122.228C494.644 122.225 494.639 122.223 490.22 131.886C486.638 121.883 486.632 121.885 486.626 121.887L486.612 121.892L486.576 121.905L486.472 121.943C486.39 121.973 486.28 122.014 486.145 122.065C485.873 122.168 485.496 122.313 485.021 122.501C484.072 122.879 482.73 123.433 481.051 124.177C477.694 125.664 472.981 127.916 467.364 131.042C456.146 137.285 441.221 147.072 426.284 161.312C396.246 189.947 366.385 236.432 366.385 307.194C366.385 377.957 396.246 424.442 426.284 453.077C438.23 464.466 450.169 473.006 460.209 479.164V453.66C454.051 449.232 447.497 443.941 440.946 437.696C414.379 412.37 387.635 371.2 387.635 307.194C387.635 243.188 414.379 202.019 440.946 176.693C454.312 163.951 467.689 155.18 477.698 149.61C482.694 146.83 486.825 144.861 489.66 143.605L489.768 143.558C489.867 143.611 489.968 143.665 490.071 143.719C492.952 145.262 497.135 147.629 502.187 150.858C512.307 157.327 525.814 167.19 539.301 180.716C566.234 207.727 592.805 249.005 592.805 307.194C592.805 365.384 566.234 406.662 539.301 433.673C532.918 440.075 526.53 445.657 520.499 450.446V476.875Z" fill="#00ED64"/>
<path d="M512.059 465.129C512.059 455.584 519.796 447.846 529.342 447.846V447.846V531.185H512.059V465.129Z" fill="#00ED64"/>
<path d="M467.041 467.556C467.041 458.011 459.303 450.273 449.758 450.273V450.273V531.185H467.041V467.556Z" fill="#00ED64"/>
<path d="M512.059 531.185H696.946V548.581H529.455C519.847 548.581 512.059 540.793 512.059 531.185V531.185Z" fill="#00ED64"/>
<mask id="path-14-inside-4_3_160" fill="white">
<path d="M234.726 538.871C234.726 554.512 247.322 567.19 262.861 567.19C278.4 567.19 290.996 554.512 290.996 538.871C290.996 523.231 278.4 510.552 262.861 510.552C247.322 510.552 234.726 523.231 234.726 538.871ZM275.825 538.871C275.825 546.078 270.021 551.92 262.861 551.92C255.701 551.92 249.897 546.078 249.897 538.871C249.897 531.665 255.701 525.822 262.861 525.822C270.021 525.822 275.825 531.665 275.825 538.871Z"/>
</mask>
<path d="M234.726 538.871C234.726 554.512 247.322 567.19 262.861 567.19C278.4 567.19 290.996 554.512 290.996 538.871C290.996 523.231 278.4 510.552 262.861 510.552C247.322 510.552 234.726 523.231 234.726 538.871ZM275.825 538.871C275.825 546.078 270.021 551.92 262.861 551.92C255.701 551.92 249.897 546.078 249.897 538.871C249.897 531.665 255.701 525.822 262.861 525.822C270.021 525.822 275.825 531.665 275.825 538.871Z" fill="#00ED64" stroke="#00ED64" stroke-width="13.5048" mask="url(#path-14-inside-4_3_160)"/>
<path d="M467.041 531.185H282.154V548.581H449.645C459.253 548.581 467.041 540.793 467.041 531.185V531.185Z" fill="#00ED64"/>
<path d="M3.84659 647.306C3.84659 642.648 4.73628 638.279 6.51565 634.196C8.29502 630.114 10.7024 626.556 13.7378 623.52C16.8256 620.432 20.4105 617.999 24.4926 616.22C28.5747 614.44 32.9446 613.55 37.6024 613.55H89.2566V636.08H37.6024C36.0323 636.08 34.567 636.368 33.2063 636.944C31.8456 637.52 30.6419 638.331 29.5952 639.378C28.6008 640.372 27.8158 641.549 27.2401 642.91C26.6644 644.271 26.3766 645.736 26.3766 647.306C26.3766 648.876 26.6644 650.368 27.2401 651.781C27.8158 653.142 28.6008 654.345 29.5952 655.392C30.6419 656.386 31.8456 657.171 33.2063 657.747C34.567 658.323 36.0323 658.611 37.6024 658.611H60.1324C64.7902 658.611 69.1601 659.5 73.2422 661.28C77.3766 663.007 80.9615 665.414 83.9969 668.502C87.0847 671.537 89.4921 675.122 91.2191 679.256C92.9985 683.339 93.8882 687.709 93.8882 692.366C93.8882 697.024 92.9985 701.394 91.2191 705.476C89.4921 709.558 87.0847 713.143 83.9969 716.231C80.9615 719.266 77.3766 721.674 73.2422 723.453C69.1601 725.232 64.7902 726.122 60.1324 726.122H10.1267V703.592H60.1324C61.7024 703.592 63.1678 703.304 64.5285 702.729C65.8892 702.153 67.0667 701.368 68.0611 700.373C69.1078 699.327 69.9189 698.123 70.4946 696.762C71.0703 695.402 71.3581 693.936 71.3581 692.366C71.3581 690.796 71.0703 689.331 70.4946 687.97C69.9189 686.609 69.1078 685.432 68.0611 684.438C67.0667 683.391 65.8892 682.58 64.5285 682.004C63.1678 681.428 61.7024 681.141 60.1324 681.141H37.6024C32.9446 681.141 28.5747 680.251 24.4926 678.471C20.4105 676.692 16.8256 674.285 13.7378 671.249C10.7024 668.162 8.29502 664.577 6.51565 660.495C4.73628 656.36 3.84659 651.964 3.84659 647.306ZM197.344 683.339C197.344 689.619 196.219 695.48 193.969 700.923C191.718 706.313 188.657 710.997 184.784 714.975C180.911 718.9 176.358 722.014 171.125 724.317C165.943 726.567 160.37 727.692 154.404 727.692C148.49 727.692 142.916 726.567 137.683 724.317C132.502 722.014 127.949 718.9 124.023 714.975C120.151 710.997 117.089 706.313 114.839 700.923C112.588 695.48 111.463 689.619 111.463 683.339C111.463 676.954 112.588 671.04 114.839 665.597C117.089 660.154 120.151 655.47 124.023 651.545C127.949 647.568 132.502 644.454 137.683 642.204C142.916 639.953 148.49 638.828 154.404 638.828C160.37 638.828 165.943 639.901 171.125 642.047C176.358 644.14 180.911 647.149 184.784 651.074C188.657 654.947 191.718 659.631 193.969 665.126C196.219 670.569 197.344 676.64 197.344 683.339ZM175.756 683.339C175.756 679.885 175.18 676.771 174.029 673.997C172.93 671.171 171.412 668.763 169.476 666.775C167.54 664.734 165.263 663.19 162.646 662.143C160.082 661.044 157.334 660.495 154.404 660.495C151.473 660.495 148.699 661.044 146.082 662.143C143.518 663.19 141.268 664.734 139.331 666.775C137.447 668.763 135.956 671.171 134.857 673.997C133.758 676.771 133.208 679.885 133.208 683.339C133.208 686.583 133.758 689.593 134.857 692.366C135.956 695.14 137.447 697.547 139.331 699.588C141.268 701.63 143.518 703.252 146.082 704.456C148.699 705.607 151.473 706.183 154.404 706.183C157.334 706.183 160.082 705.633 162.646 704.534C165.263 703.435 167.54 701.891 169.476 699.902C171.412 697.914 172.93 695.506 174.029 692.68C175.18 689.854 175.756 686.74 175.756 683.339ZM244.122 619.203C244.122 621.191 243.729 623.049 242.944 624.776C242.212 626.503 241.191 628.021 239.883 629.329C238.574 630.585 237.03 631.606 235.251 632.391C233.524 633.124 231.666 633.49 229.677 633.49C227.689 633.49 225.805 633.124 224.025 632.391C222.298 631.606 220.781 630.585 219.472 629.329C218.216 628.021 217.196 626.503 216.411 624.776C215.678 623.049 215.312 621.191 215.312 619.203C215.312 617.266 215.678 615.435 216.411 613.707C217.196 611.928 218.216 610.41 219.472 609.154C220.781 607.846 222.298 606.825 224.025 606.093C225.805 605.308 227.689 604.915 229.677 604.915C231.666 604.915 233.524 605.308 235.251 606.093C237.03 606.825 238.574 607.846 239.883 609.154C241.191 610.41 242.212 611.928 242.944 613.707C243.729 615.435 244.122 617.266 244.122 619.203ZM240.432 726.122H218.844V642.047H240.432V726.122ZM288.073 726.122H266.485V608.605H288.073V726.122ZM338.933 726.122H316.403V613.55H338.933V726.122ZM388.694 726.122H367.263V642.047H372.444L379.509 650.211C382.963 647.071 386.862 644.663 391.206 642.989C395.602 641.262 400.181 640.398 404.944 640.398C410.073 640.398 414.913 641.392 419.467 643.381C424.02 645.318 427.997 648.013 431.399 651.467C434.801 654.869 437.47 658.872 439.406 663.478C441.395 668.031 442.389 672.898 442.389 678.079V726.122H420.958V678.079C420.958 675.881 420.539 673.814 419.702 671.877C418.865 669.889 417.713 668.162 416.248 666.696C414.783 665.231 413.082 664.079 411.145 663.242C409.209 662.405 407.142 661.986 404.944 661.986C402.693 661.986 400.574 662.405 398.585 663.242C396.596 664.079 394.869 665.231 393.404 666.696C391.939 668.162 390.787 669.889 389.95 671.877C389.113 673.814 388.694 675.881 388.694 678.079V726.122ZM508.4 726.122C503.219 726.122 498.351 725.154 493.798 723.218C489.245 721.229 485.242 718.534 481.788 715.132C478.386 711.678 475.691 707.674 473.702 703.121C471.765 698.568 470.797 693.701 470.797 688.52V663.556H460.357V642.204H470.797V608.605H492.15V642.204H524.65V663.556H492.15V688.52C492.15 690.77 492.568 692.89 493.406 694.878C494.243 696.815 495.395 698.516 496.86 699.981C498.325 701.446 500.052 702.624 502.041 703.514C504.03 704.351 506.149 704.77 508.4 704.77H524.65V726.122H508.4ZM579.827 705.555C580.664 705.816 581.502 705.999 582.339 706.104C583.176 706.156 584.014 706.183 584.851 706.183C586.944 706.183 588.959 705.895 590.896 705.319C592.832 704.743 594.638 703.932 596.312 702.886C598.039 701.787 599.557 700.478 600.865 698.96C602.226 697.39 603.325 695.663 604.162 693.779L619.863 709.558C617.874 712.384 615.571 714.922 612.955 717.173C610.39 719.423 607.59 721.333 604.555 722.903C601.572 724.474 598.406 725.651 595.056 726.436C591.759 727.273 588.357 727.692 584.851 727.692C578.937 727.692 573.364 726.593 568.13 724.395C562.949 722.197 558.396 719.135 554.471 715.21C550.598 711.285 547.536 706.627 545.286 701.237C543.036 695.794 541.911 689.828 541.911 683.339C541.911 676.692 543.036 670.621 545.286 665.126C547.536 659.631 550.598 654.947 554.471 651.074C558.396 647.202 562.949 644.192 568.13 642.047C573.364 639.901 578.937 638.828 584.851 638.828C588.357 638.828 591.785 639.247 595.135 640.084C598.484 640.921 601.65 642.125 604.633 643.695C607.669 645.265 610.495 647.202 613.112 649.504C615.728 651.755 618.031 654.293 620.02 657.119L579.827 705.555ZM590.817 661.358C589.823 660.992 588.828 660.756 587.834 660.652C586.892 660.547 585.898 660.495 584.851 660.495C581.92 660.495 579.147 661.044 576.53 662.143C573.965 663.19 571.715 664.707 569.779 666.696C567.895 668.685 566.403 671.092 565.304 673.918C564.205 676.692 563.656 679.832 563.656 683.339C563.656 684.124 563.682 685.013 563.734 686.008C563.839 687.002 563.97 688.023 564.127 689.069C564.336 690.064 564.571 691.032 564.833 691.974C565.095 692.916 565.435 693.753 565.854 694.486L590.817 661.358ZM662.087 726.122H640.499V608.605H662.087V726.122ZM709.729 726.122H688.141V608.605H709.729V726.122ZM769.224 705.555C770.061 705.816 770.898 705.999 771.736 706.104C772.573 706.156 773.41 706.183 774.248 706.183C776.341 706.183 778.356 705.895 780.292 705.319C782.229 704.743 784.034 703.932 785.709 702.886C787.436 701.787 788.954 700.478 790.262 698.96C791.623 697.39 792.722 695.663 793.559 693.779L809.259 709.558C807.271 712.384 804.968 714.922 802.351 717.173C799.787 719.423 796.987 721.333 793.952 722.903C790.969 724.474 787.802 725.651 784.453 726.436C781.156 727.273 777.754 727.692 774.248 727.692C768.334 727.692 762.76 726.593 757.527 724.395C752.346 722.197 747.793 719.135 743.867 715.21C739.995 711.285 736.933 706.627 734.683 701.237C732.432 695.794 731.307 689.828 731.307 683.339C731.307 676.692 732.432 670.621 734.683 665.126C736.933 659.631 739.995 654.947 743.867 651.074C747.793 647.202 752.346 644.192 757.527 642.047C762.76 639.901 768.334 638.828 774.248 638.828C777.754 638.828 781.182 639.247 784.531 640.084C787.881 640.921 791.047 642.125 794.03 643.695C797.065 645.265 799.892 647.202 802.508 649.504C805.125 651.755 807.428 654.293 809.416 657.119L769.224 705.555ZM780.214 661.358C779.219 660.992 778.225 660.756 777.231 660.652C776.289 660.547 775.294 660.495 774.248 660.495C771.317 660.495 768.543 661.044 765.926 662.143C763.362 663.19 761.112 664.707 759.175 666.696C757.291 668.685 755.8 671.092 754.701 673.918C753.602 676.692 753.052 679.832 753.052 683.339C753.052 684.124 753.078 685.013 753.131 686.008C753.235 687.002 753.366 688.023 753.523 689.069C753.732 690.064 753.968 691.032 754.23 691.974C754.491 692.916 754.832 693.753 755.25 694.486L780.214 661.358ZM902.746 658.768L887.045 674.546C886.26 672.348 885.187 670.386 883.827 668.659C882.466 666.879 880.922 665.388 879.195 664.184C877.52 662.98 875.689 662.065 873.7 661.437C871.711 660.809 869.67 660.495 867.577 660.495C864.646 660.495 861.872 661.096 859.256 662.3C856.691 663.504 854.441 665.205 852.504 667.403C850.62 669.548 849.129 672.113 848.03 675.096C846.931 678.079 846.381 681.376 846.381 684.987C846.381 687.918 846.931 690.665 848.03 693.23C849.129 695.794 850.62 698.045 852.504 699.981C854.441 701.917 856.691 703.435 859.256 704.534C861.872 705.633 864.646 706.183 867.577 706.183C869.67 706.183 871.685 705.895 873.621 705.319C875.558 704.743 877.363 703.932 879.038 702.886C880.765 701.787 882.283 700.478 883.591 698.96C884.952 697.39 886.051 695.663 886.888 693.779L902.589 709.558C900.6 712.384 898.297 714.922 895.68 717.173C893.116 719.423 890.316 721.333 887.281 722.903C884.298 724.474 881.131 725.651 877.782 726.436C874.485 727.273 871.083 727.692 867.577 727.692C861.663 727.692 856.089 726.593 850.856 724.395C845.675 722.145 841.122 719.083 837.197 715.21C833.324 711.338 830.262 706.811 828.012 701.63C825.762 696.448 824.636 690.901 824.636 684.987C824.636 678.55 825.762 672.532 828.012 666.932C830.262 661.332 833.324 656.465 837.197 652.33C841.122 648.144 845.675 644.847 850.856 642.439C856.089 640.032 861.663 638.828 867.577 638.828C871.083 638.828 874.511 639.273 877.861 640.163C881.262 641.052 884.481 642.361 887.516 644.088C890.604 645.762 893.43 647.83 895.994 650.289C898.611 652.749 900.862 655.575 902.746 658.768ZM965.067 726.122C959.886 726.122 955.018 725.154 950.465 723.218C945.912 721.229 941.909 718.534 938.455 715.132C935.053 711.678 932.358 707.674 930.369 703.121C928.432 698.568 927.464 693.701 927.464 688.52V663.556H917.024V642.204H927.464V608.605H948.817V642.204H981.317V663.556H948.817V688.52C948.817 690.77 949.235 692.89 950.073 694.878C950.91 696.815 952.062 698.516 953.527 699.981C954.992 701.446 956.719 702.624 958.708 703.514C960.697 704.351 962.816 704.77 965.067 704.77H981.317V726.122H965.067Z" fill="#00ED64"/>
</svg>
