<svg width="8467" height="18217" viewBox="0 0 8467 18217" fill="none" xmlns="http://www.w3.org/2000/svg">
<path d="M3375.52 4802.83C3121.55 5420.07 2772.54 6318.73 2772.54 6318.73C2381.29 6598.57 1965.22 6840.39 1581.37 6965.53C1513.71 6987.46 1440.41 6984.28 1374.92 6956.55C1200.68 6884.22 1078.18 6890.55 903.939 6864.68C767.715 6844.62 702.242 6793.93 682.706 6821.38C663.706 6855.05 658.593 6894.79 668.454 6932.17C678.315 6969.54 702.373 7001.59 735.506 7021.5C807.811 7068.25 885.452 7106.18 966.771 7134.49C955.155 7130.26 894.963 7164.59 883.347 7168.81C812.814 7194.88 740.225 7215.02 666.338 7229C586.667 7246.7 504.953 7253.45 423.457 7249.07L138.864 7222.14C110.276 7217.08 80.9393 7218.16 52.7998 7225.3C39.0333 7229.34 26.7265 7237.27 17.3593 7248.14C7.99218 7259 1.96368 7272.34 -0.000385446 7286.55C1.67636 7302.58 7.40259 7317.92 16.639 7331.13C25.8755 7344.34 38.3188 7354.98 52.7998 7362.06C81.7961 7375.61 107.41 7395.45 127.777 7420.14C148.897 7453.4 143.617 7496.7 160.513 7532.07C172.937 7553.85 188.605 7573.62 206.977 7590.68C242.901 7636.73 275.541 7685.25 304.657 7735.88C340.204 7795.71 396.623 7840.29 463.057 7861.02C510.323 7876.18 558.692 7887.65 607.73 7895.34C737.884 7914.34 869.988 7915.94 1000.56 7900.09C1125.56 7885.72 1249.17 7861.18 1370.16 7826.7C1603.09 7768.97 1832.31 7697.2 2056.57 7611.8C2662.71 7357.83 2757.23 7347.8 3165.37 7136.6C3267.8 7083.8 3455.77 6947.58 3539.2 6789.7C4106.8 5711.52 4282.62 5388.91 4500.16 4792.27L4513.89 3616.94C3881.87 3824.45 3797.92 3773.76 3375.52 4802.83Z" fill="#FFA8A7"/>
<path d="M4454.22 3594.77C3887.68 3647.57 3767.82 3866.69 3563.48 4291.73C3310.57 4819.73 2791.55 6228.97 2791.55 6228.97C3025.07 6452.15 3324.62 6593.68 3645.32 6632.36L4425.71 5147.62C4425.71 5147.62 4842.83 4024.56 4454.22 3594.77Z" fill="#37474F"/>
<path d="M2579.82 6451.78C2572.95 6416.41 2645.29 6370.47 2692.81 6293.38C2740.33 6216.29 2798.41 6008.26 2865.99 6032.02C2865.99 6032.02 3220.81 6247.97 3436.76 6290.74C3557.16 6315.61 3679.33 6330.97 3802.14 6336.68C3802.14 6336.68 3905.1 6341.43 3770.99 6630.25C3636.88 6919.06 3422.51 7089.08 3338.03 7101.75C3253.55 7114.42 3241.93 7089.08 3241.93 7089.08C2970.68 6936.33 2742.81 6717 2579.82 6451.78Z" fill="#263238"/>
<path d="M6981.24 3934.27C6981.24 3934.27 7152.31 4044.09 7152.31 4361.95C7152.31 4488.14 7143.34 4791.74 7003.94 5373.07C6877.75 5901.08 6871.94 6136.04 6840.26 6508.28L6941.11 7837.79C6546.17 8280.25 4805.34 8482.48 3919.88 7855.21C3919.88 7855.21 3871.31 5448.05 3952.09 4680.86C4004.89 4160.25 4268.89 3753.16 4453.69 3596.88C4699.22 3559.92 4770.5 3535.63 4937.34 3534.04L5855.01 3440.59L6981.24 3934.27Z" fill="#455A64"/>
<path d="M5074.62 16749.4C5090.99 16765.8 5089.94 16912 5059.84 16930.5C4949.49 16997 4493.29 17077.3 4373.44 17158.6C4235.63 17253.6 4070.36 17500.7 3591.47 17539.8C2984.79 17588.9 2712.34 17397.3 2627.86 17293.8C2600.41 17260.5 2590.9 17029.8 2614.66 17026.1C2709.7 17011.3 5074.62 16749.4 5074.62 16749.4Z" fill="#37474F"/>
<path d="M6957.48 7374.73C7043.54 8641.93 7106.37 11976.3 7106.37 11976.3C7126.44 12134.7 7330.25 12534.9 7367.21 13103C7420.01 13927.2 7411.03 15314.8 7411.03 15314.8C7411.03 15314.8 6914.71 15547.7 6547.22 15413C6547.22 15413 5936.32 13024.9 5799.04 12433C5635.36 11727.6 5461.65 10014.7 5461.65 10014.7L5243.59 12153.1C5279.51 12493.8 5279.51 12837.3 5243.59 13178C5201.87 13555 4990.14 15096.2 4990.14 15096.2C4990.14 15096.2 4441.55 15210.8 4042.91 15096.2C4042.91 15096.2 3899.29 12465.7 3877.64 12119.4C3852.83 11724.4 3874.48 7453.93 3874.48 7453.93C3841.74 6094.85 3721.88 4057.29 4455.28 3599.52L4748.32 3551.47C4547.15 3847.13 4429.16 4191.43 4406.7 4548.34L5771.06 4642.85L6253.12 3614.3L6622.73 3776.93C6622.73 3776.93 6341.83 4456.99 6305.92 5121.22C6270.02 5785.44 6905.73 6796.04 6905.73 6796.04C6905.73 6796.04 6941.11 7105.98 6957.48 7374.73Z" fill="#00ED64"/>
<path opacity="0.6" d="M6957.48 7374.73C7043.54 8641.93 7106.37 11976.3 7106.37 11976.3C7126.44 12134.7 7330.25 12534.9 7367.21 13103C7420.01 13927.2 7411.03 15314.8 7411.03 15314.8C7411.03 15314.8 6914.71 15547.7 6547.22 15413C6547.22 15413 5936.32 13024.9 5799.04 12433C5635.36 11727.6 5461.65 10014.7 5461.65 10014.7L5243.59 12153.1C5279.51 12493.8 5279.51 12837.3 5243.59 13178C5201.87 13555 4990.14 15096.2 4990.14 15096.2C4990.14 15096.2 4441.55 15210.8 4042.91 15096.2C4042.91 15096.2 3899.29 12465.7 3877.64 12119.4C3852.83 11724.4 3874.48 7453.93 3874.48 7453.93C3841.74 6094.85 3721.88 4057.29 4455.28 3599.52L4748.32 3551.47C4547.15 3847.13 4429.16 4191.43 4406.7 4548.34L5771.06 4642.85L6253.12 3614.3L6622.73 3776.93C6622.73 3776.93 6341.83 4456.99 6305.92 5121.22C6270.02 5785.44 6905.73 6796.04 6905.73 6796.04C6905.73 6796.04 6941.11 7105.98 6957.48 7374.73Z" fill="white"/>
<path opacity="0.25" d="M5462.71 10014.7L5276.85 8826.21C5276.85 8826.21 4840.72 8811.95 4540.81 8534.22C4540.81 8534.22 4579.89 8813.01 5125.31 8977.74L5336.51 9980.95L5249.39 12119.4L5462.71 10014.7Z" fill="#00ED64"/>
<path d="M5462.71 10014.7L5276.85 8826.21C5276.85 8826.21 4840.72 8811.95 4540.81 8534.22C4540.81 8534.22 4579.89 8813.01 5125.31 8977.74L5336.51 9980.95L5249.39 12119.4L5462.71 10014.7Z" fill="#00ED64"/>
<path d="M5268.4 12729.2C5268.4 12841.7 4939.98 12923 4539.76 12944.1C4139.53 12965.2 3913.55 12778.3 3910.38 12729.2L3905.1 12635.2C3905.1 12635.2 3816.92 12623.6 3844.91 12918.2C3872.89 13212.8 3950.51 15437.3 3950.51 15589.9C3950.51 15742.5 3875 16053.5 3640.57 16230.4C3397.5 16408.6 3138.36 16563.8 2866.52 16694C2637.9 16802.2 2562.92 16905.2 2599.88 17128C2599.88 17128 2762.5 17431.1 3401.91 17440C3982.72 17447.9 4123.17 17228.8 4319.58 17070.4C4516 16912 4802.7 16947.4 5056.14 16792.7C5056.14 16792.7 5133.23 16648.6 5047.17 16229.8C5003.87 16018.6 5039.25 15697.6 5084.66 15317.5C5130.06 14937.3 5337.57 13004.8 5348.66 12823.2C5359.74 12641.5 5323.31 12565.5 5269.46 12565.5L5268.4 12729.2Z" fill="#455A64"/>
<path d="M6542.47 17476.5C6547.22 17725.1 6583.65 17890.9 6676.58 18039.8C6769.51 18188.7 6955.37 18241 7147.56 18205.6C7339.75 18170.3 7588.97 18065.7 7653.39 17854C7717.8 17642.3 7713.58 17495.5 7680.84 17264.2L6542.47 17476.5Z" fill="#263238"/>
<path d="M5970.12 13133.6L6000.74 13256.7C6000.74 13256.7 6273.72 13362.3 6765.29 13254C7256.86 13145.8 7346.09 12880.7 7346.09 12880.7L7320.22 12729.2C7400.47 12735.5 7404.17 12823.2 7414.2 13039.1C7424.23 13255.1 7467 14138.4 7462.78 14546C7458.55 14953.7 7474.92 15370.3 7489.18 15661.2C7503.43 15952.1 7536.7 16111.6 7541.98 16388.8C7547.26 16666 7700.38 17009.2 7689.82 17387.2C7702.43 17562.4 7649.77 17736 7541.98 17874.6C7399.94 18072 6921.05 18252.6 6702.45 17954.8C6601.54 17815.5 6546.21 17648.4 6544.05 17476.5C6541.02 17356.2 6546.32 17235.9 6559.89 17116.4C6568.87 17025.5 6577.32 16942.6 6584.71 16864C6612.69 16485.9 6558.31 16015 6494.95 15590.4C6431.59 15165.9 6015.52 13531.2 5966.95 13333.2C5918.37 13135.2 5970.12 13133.6 5970.12 13133.6Z" fill="#455A64"/>
<path d="M4408.29 10881.2L916.083 8864.75L3011.72 7654.57L6503.93 9671.01L4408.29 10881.2Z" fill="#455A64"/>
<path d="M486.817 6244.81L626.738 6325.59L3147.95 4869.89L3008.03 4789.11L486.817 6244.81Z" fill="#00ED64"/>
<path d="M486.817 6244.81V6730.04L626.738 6810.82V6325.59L486.817 6244.81Z" fill="#00ED64"/>
<path opacity="0.2" d="M486.817 6244.81V6730.04L626.738 6810.82V6325.59L486.817 6244.81Z" fill="black"/>
<path d="M3147.95 4869.89V5355.12L626.738 6810.82V6325.59L3147.95 4869.89Z" fill="#00ED64"/>
<path opacity="0.3" d="M3147.95 4869.89V5355.12L626.738 6810.82V6325.59L3147.95 4869.89Z" fill="black"/>
<path d="M6789.57 6972.39L3147.95 4869.89L3008.03 4950.67L6649.65 7053.18L6789.57 6972.39Z" fill="#00ED64"/>
<path d="M6649.65 7053.18V7538.41L3008.03 5435.91V4950.67L6649.65 7053.18Z" fill="#00ED64"/>
<path opacity="0.3" d="M6649.65 7053.18V7538.41L3008.03 5435.91V4950.67L6649.65 7053.18Z" fill="black"/>
<path opacity="0.2" d="M3029.15 5448.05L3008.03 4950.67V5435.91L3029.15 5448.05Z" fill="black"/>
<path d="M6789.57 7942.86L3147.95 5840.36L3008.03 5921.14L6649.65 8023.64L6789.57 7942.86Z" fill="#00ED64"/>
<path d="M6649.65 8023.64V8508.88L3008.03 6406.37V5921.14L6649.65 8023.64Z" fill="#00ED64"/>
<path opacity="0.3" d="M6649.65 8023.64V8508.88L3008.03 6406.37V5921.14L6649.65 8023.64Z" fill="black"/>
<path opacity="0.2" d="M3029.15 6418.52L3008.03 5921.14V6406.37L3029.15 6418.52Z" fill="black"/>
<path d="M6789.57 8913.33L3147.95 6810.82L3008.03 6891.61L6649.65 8994.11L6789.57 8913.33Z" fill="#00ED64"/>
<path d="M6649.65 8994.11V9479.35L3008.03 7376.84V6891.61L6649.65 8994.11Z" fill="#00ED64"/>
<path opacity="0.3" d="M6649.65 8994.11V9479.35L3008.03 7376.84V6891.61L6649.65 8994.11Z" fill="black"/>
<path opacity="0.2" d="M3029.15 7388.99L3008.03 6891.61V7376.84L3029.15 7388.99Z" fill="black"/>
<path d="M486.817 7215.27L626.738 7296.06L3147.95 5840.36L3008.03 5759.57L486.817 7215.27Z" fill="#00ED64"/>
<path d="M486.817 7215.27V7700.51L626.738 7781.29V7296.06L486.817 7215.27Z" fill="#00ED64"/>
<path opacity="0.2" d="M486.817 7215.27V7700.51L626.738 7781.29V7296.06L486.817 7215.27Z" fill="black"/>
<path d="M3147.95 5840.36V6325.59L626.738 7781.29V7296.06L3147.95 5840.36Z" fill="#00ED64"/>
<path opacity="0.3" d="M3147.95 5840.36V6325.59L626.738 7781.29V7296.06L3147.95 5840.36Z" fill="black"/>
<path d="M486.817 8185.74L626.738 8266.53L3147.95 6810.83L3008.03 6730.04L486.817 8185.74Z" fill="#00ED64"/>
<path d="M486.817 8185.74V8670.97L626.738 8751.76V8266.52L486.817 8185.74Z" fill="#00ED64"/>
<path opacity="0.2" d="M486.817 8185.74V8670.97L626.738 8751.76V8266.52L486.817 8185.74Z" fill="black"/>
<path d="M3147.95 6810.82V7296.06L626.738 8751.76V8266.52L3147.95 6810.82Z" fill="#00ED64"/>
<path opacity="0.3" d="M3147.95 6810.82V7296.06L626.738 8751.76V8266.52L3147.95 6810.82Z" fill="black"/>
<path d="M6649.65 7053.18L6509.73 7134.49L6369.28 7053.18L6509.73 6972.39L6649.65 7053.18Z" fill="#00ED64"/>
<path d="M6509.73 7134.49V9722.23L6649.65 9640.91V7053.18L6509.73 7134.49Z" fill="#00ED64"/>
<path opacity="0.25" d="M6509.73 7134.49V9722.23L6649.65 9640.91V7053.18L6509.73 7134.49Z" fill="black"/>
<path d="M6509.73 7134.49V9722.23L6369.28 9640.91V7053.18L6509.73 7134.49Z" fill="#00ED64"/>
<path opacity="0.15" d="M6509.73 7134.49V9722.23L6369.28 9640.91V7053.18L6509.73 7134.49Z" fill="black"/>
<path opacity="0.2" d="M6649.65 7700.51L6509.73 7781.29V7842.01L6649.65 7761.23V7700.51Z" fill="black"/>
<path opacity="0.2" d="M6649.65 8670.97L6509.73 8751.76V8812.48L6649.65 8731.69V8670.97Z" fill="black"/>
<path opacity="0.2" d="M6509.73 6972.39L6649.65 7053.18L6509.73 7134.49L6606.89 7053.18L6509.73 6972.39Z" fill="black"/>
<path d="M3147.95 5031.99L3008.03 5112.77L2867.58 5031.99L3008.03 4950.67L3147.95 5031.99Z" fill="#00ED64"/>
<path d="M3008.03 5112.77V7700.51L3147.95 7619.19V5031.99L3008.03 5112.77Z" fill="#00ED64"/>
<path opacity="0.25" d="M3008.03 5112.77V7700.51L3147.95 7619.19V5031.99L3008.03 5112.77Z" fill="black"/>
<path d="M3008.03 5112.77V7700.51L2867.58 7619.19V5031.99L3008.03 5112.77Z" fill="#00ED64"/>
<path opacity="0.15" d="M3008.03 5112.77V7700.51L2867.58 7619.19V5031.99L3008.03 5112.77Z" fill="black"/>
<path opacity="0.2" d="M3147.95 5031.99L3008.03 4950.67L2867.58 5031.99L3008.03 4978.13L3147.95 5031.99Z" fill="black"/>
<path d="M2208.63 7682.03C2327.43 7663.02 2534.41 7633.98 2718.15 7867.35C2929.35 8131.35 2864.41 8534.75 2676.44 8739.08C2440.95 8996.22 2006.41 9103.41 1698.05 8924.94C1356.96 8728 1228.66 8241.71 1375.97 7984.57C1523.28 7727.43 1835.33 7720.57 1920.34 7738.52C2048.12 7762.81 2116.76 7696.81 2208.63 7682.03Z" fill="#F28F8F"/>
<path opacity="0.15" d="M2208.63 7682.03C2327.43 7663.02 2534.41 7633.98 2718.15 7867.35C2929.35 8131.35 2864.41 8534.75 2676.44 8739.08C2440.95 8996.22 2006.41 9103.41 1698.05 8924.94C1356.96 8728 1228.66 8241.71 1375.97 7984.57C1523.28 7727.43 1835.33 7720.57 1920.34 7738.52C2048.12 7762.81 2116.76 7696.81 2208.63 7682.03Z" fill="black"/>
<path opacity="0.1" d="M1845.89 8829.37C2185.4 8929.17 2588.26 8786.61 2796.3 8540.03C2768.64 8613.28 2727.64 8680.77 2675.38 8739.09C2439.9 8996.22 2005.35 9103.41 1697 8924.94C1438.28 8776.05 1302.58 8460.3 1315.78 8204.22C1320 8274.44 1472.6 8720.08 1845.89 8829.37Z" fill="black"/>
<g opacity="0.2">
<path d="M2353.3 7759.64C2427.22 7736.41 2551.3 7779.71 2631.03 7869.99C2726.05 7992.23 2780.01 8141.36 2785.21 8296.09C2798.41 8570.65 2574.01 8765.49 2543.38 8748.06C2512.76 8730.64 2661.66 8517.85 2501.67 8276.56C2341.69 8035.26 2231.86 7797.13 2353.3 7759.64Z" fill="white"/>
</g>
<g opacity="0.2">
<path d="M2420.89 7789.21C2503.26 7798.71 2619.42 7902.2 2661.66 7984.04C2703.9 8065.88 2705.48 8127.66 2695.45 8142.44C2678.55 8165.68 2489 8046.87 2423 7989.85C2330.07 7905.9 2287.83 7774.43 2420.89 7789.21Z" fill="white"/>
</g>
<path d="M2136.29 7934.94C2170.09 7893.23 2204.93 7868.41 2236.09 7912.76C2267.24 7957.11 2174.84 8059.02 2046.01 8050.04C1917.17 8041.07 1858.04 7971.37 1852.23 7930.71C1894.13 7973.07 1951.05 7997.17 2010.63 7997.77C2058.46 7991.78 2102.8 7969.61 2136.29 7934.94Z" fill="#B16668"/>
<path d="M2039.67 8018.89C2016.93 7906.16 2011.06 7790.67 2022.25 7676.22C2043.37 7508.84 2116.23 7378.95 2139.99 7359.42C2178.82 7334.19 2222.54 7317.45 2268.29 7310.31C2330.6 7297.64 2413.5 7322.98 2398.71 7351.5C2383.93 7380.01 2297.86 7417.5 2211.27 7542.63C2124.68 7667.77 2063.96 7887.95 2089.83 8006.22C2083.44 8012.74 2075.38 8017.37 2066.53 8019.61C2057.68 8021.84 2048.39 8021.59 2039.67 8018.89Z" fill="#37474F"/>
<path d="M2144.21 7358.36L2149.5 7354.67C2186.13 7333.74 2226.17 7319.44 2267.77 7312.43C2310.18 7303.34 2354.46 7310.5 2391.85 7332.49C2397.66 7340.41 2387.1 7355.72 2333.24 7375.79C2280.04 7395.78 2222.85 7402.83 2166.39 7396.38C2140.52 7392.68 2126.79 7373.15 2144.21 7358.36Z" fill="#455A64"/>
<path opacity="0.1" d="M2078.21 7805.58C2096.17 7655.1 2219.19 7506.2 2309.48 7432.28C2272.53 7465.87 2239.58 7503.61 2211.27 7544.75C2124.68 7669.88 2063.96 7890.06 2089.83 8008.33C2082.98 8014.99 2074.35 8019.52 2064.99 8021.39C2055.62 8023.27 2045.91 8022.4 2037.03 8018.89C2037.03 8018.89 2028.05 7976.65 2021.19 7913.29C2039.14 7970.32 2060.79 7944.44 2078.21 7805.58Z" fill="black"/>
<path d="M2015.91 7768.62C1970.41 7788.86 1920.26 7796.29 1870.85 7790.12C1821.44 7783.95 1774.65 7764.41 1735.53 7733.6C1696.4 7702.79 1666.44 7661.89 1648.85 7615.3C1631.27 7568.72 1626.74 7518.21 1635.75 7469.24C1676.89 7452.38 1721.48 7445.64 1765.76 7449.59C1810.05 7453.54 1852.74 7468.07 1890.25 7491.95C1931.86 7524.59 1965.01 7566.77 1986.88 7614.93C2008.75 7663.09 2018.71 7715.8 2015.91 7768.62Z" fill="#00ED64"/>
<path opacity="0.3" d="M2015.91 7768.62C1970.41 7788.86 1920.26 7796.29 1870.85 7790.12C1821.44 7783.95 1774.65 7764.41 1735.53 7733.6C1696.4 7702.79 1666.44 7661.89 1648.85 7615.3C1631.27 7568.72 1626.74 7518.21 1635.75 7469.24C1676.89 7452.38 1721.48 7445.64 1765.76 7449.59C1810.05 7453.54 1852.74 7468.07 1890.25 7491.95C1931.86 7524.59 1965.01 7566.77 1986.88 7614.93C2008.75 7663.09 2018.71 7715.8 2015.91 7768.62Z" fill="black"/>
<path d="M1635.75 7469.24C1676.89 7452.38 1721.48 7445.64 1765.76 7449.59C1810.05 7453.54 1852.74 7468.07 1890.25 7491.95C1931.86 7524.59 1965.01 7566.77 1986.88 7614.93C2008.75 7663.09 2018.71 7715.8 2015.91 7768.62C1899.22 7567.45 1635.75 7469.24 1635.75 7469.24Z" fill="#00ED64"/>
<path d="M3163.79 8324.08C3282.06 8305.07 3489.56 8276.03 3673.31 8509.4C3884.51 8773.41 3819.04 9176.8 3631.6 9381.13C3395.58 9638.27 2961.56 9745.46 2653.21 9566.99C2312.12 9370.05 2183.82 8883.76 2331.13 8626.62C2478.44 8369.48 2789.96 8362.62 2874.97 8380.57C3002.75 8404.86 3071.39 8338.86 3163.79 8324.08Z" fill="#F28F8F"/>
<path opacity="0.1" d="M3163.79 8324.08C3282.06 8305.07 3489.56 8276.03 3673.31 8509.4C3884.51 8773.41 3819.04 9176.8 3631.6 9381.13C3395.58 9638.27 2961.56 9745.46 2653.21 9566.99C2312.12 9370.05 2183.82 8883.76 2331.13 8626.62C2478.44 8369.48 2789.96 8362.62 2874.97 8380.57C3002.75 8404.86 3071.39 8338.86 3163.79 8324.08Z" fill="black"/>
<path opacity="0.1" d="M2801.05 9471.43C3140.55 9571.22 3543.42 9428.66 3751.45 9182.08C3723.81 9255.23 3683.01 9322.69 3631.07 9381.14C3395.05 9638.27 2961.03 9745.46 2652.68 9566.99C2393.96 9418.1 2257.73 9102.35 2271.46 8846.27C2275.16 8916.5 2427.75 9362.13 2801.05 9471.43Z" fill="black"/>
<g opacity="0.2">
<path d="M3307.93 8399.58C3382.38 8376.35 3506.46 8419.12 3586.19 8509.4C3681.02 8631.94 3734.96 8781.18 3740.36 8936.03C3753.56 9210.59 3529.16 9405.42 3498.54 9388C3467.92 9370.58 3616.81 9157.79 3456.83 8916.49C3296.84 8675.2 3186.49 8439.18 3307.93 8399.58Z" fill="white"/>
</g>
<g opacity="0.2">
<path d="M3375.52 8431.26C3458.41 8440.76 3574.04 8544.25 3616.28 8626.09C3658.52 8707.93 3660.11 8769.71 3650.6 8784.49C3633.18 8807.73 3443.63 8688.93 3378.16 8631.37C3284.7 8547.95 3242.46 8416.48 3375.52 8431.26Z" fill="white"/>
</g>
<path d="M3091.45 8576.99C3125.24 8535.28 3160.62 8510.46 3191.77 8554.81C3222.92 8599.16 3130.52 8701.07 3001.69 8692.09C2872.86 8683.12 2813.72 8613.42 2807.39 8572.76C2849.38 8614.98 2906.25 8639.05 2965.79 8639.82C3013.72 8634.17 3058.17 8611.94 3091.45 8576.99Z" fill="#B16668"/>
<path d="M2994.83 8663.58C2972.06 8550.86 2966.01 8435.39 2976.87 8320.91C2986.71 8206.6 3027.41 8097.1 3094.62 8004.11C3133.45 7978.88 3177.17 7962.14 3222.92 7955C3285.23 7942.33 3368.65 7967.68 3353.34 7996.19C3338.03 8024.7 3252.49 8062.19 3166.43 8187.32C3080.36 8312.46 3019.11 8532.64 3044.46 8650.91C3038.15 8657.38 3030.18 8661.99 3021.43 8664.23C3012.67 8666.47 3003.46 8666.24 2994.83 8663.58Z" fill="#37474F"/>
<path d="M3098.84 8000.41L3104.65 7996.72C3141.28 7976.31 3181.09 7962.21 3222.4 7955C3264.81 7945.86 3309.1 7953.03 3346.48 7975.07C3352.81 7982.99 3341.72 7998.3 3287.87 8018.36C3234.7 8038.48 3177.44 8045.37 3121.02 8038.43C3095.67 8034.73 3081.42 8015.2 3098.84 8000.41Z" fill="#455A64"/>
<path opacity="0.1" d="M3033.9 8447.63C3052.38 8297.15 3175.4 8148.25 3265.69 8074.33C3228.6 8107.78 3195.63 8145.54 3167.48 8186.8C3080.89 8311.93 3020.17 8532.11 3045.51 8650.38C3038.99 8656.49 3030.91 8660.71 3022.17 8662.57C3013.42 8664.43 3004.33 8663.87 2995.88 8660.94C2988.63 8626.04 2983.17 8590.8 2979.51 8555.34C2994.3 8610.78 3015.95 8586.49 3033.9 8447.63Z" fill="black"/>
<path d="M2971.07 8410.67C2925.54 8430.85 2875.38 8438.24 2825.97 8432.05C2776.56 8425.87 2729.77 8406.33 2690.62 8375.55C2651.48 8344.77 2621.47 8303.9 2603.8 8257.34C2586.14 8210.78 2581.5 8160.29 2590.38 8111.29C2631.61 8094.43 2676.28 8087.69 2720.65 8091.64C2765.02 8095.59 2807.8 8110.11 2845.4 8134C2886.92 8166.73 2919.99 8208.93 2941.85 8257.06C2963.72 8305.2 2973.73 8357.87 2971.07 8410.67Z" fill="#00ED64"/>
<path opacity="0.3" d="M2971.07 8410.67C2925.54 8430.85 2875.38 8438.24 2825.97 8432.05C2776.56 8425.87 2729.77 8406.33 2690.62 8375.55C2651.48 8344.77 2621.47 8303.9 2603.8 8257.34C2586.14 8210.78 2581.5 8160.29 2590.38 8111.29C2631.61 8094.43 2676.28 8087.69 2720.65 8091.64C2765.02 8095.59 2807.8 8110.11 2845.4 8134C2886.92 8166.73 2919.99 8208.93 2941.85 8257.06C2963.72 8305.2 2973.73 8357.87 2971.07 8410.67Z" fill="black"/>
<path d="M2590.38 8111.29C2631.61 8094.43 2676.28 8087.69 2720.65 8091.64C2765.02 8095.59 2807.8 8110.11 2845.4 8134C2886.92 8166.73 2919.99 8208.93 2941.85 8257.06C2963.72 8305.2 2973.73 8357.87 2971.07 8410.67C2853.85 8209.5 2590.38 8111.29 2590.38 8111.29Z" fill="#00ED64"/>
<path d="M4216.09 8869.5C4334.89 8851.02 4541.87 8821.98 4725.62 9055.36C4936.82 9319.36 4871.87 9722.22 4683.9 9927.09C4448.41 10183.7 4013.87 10290.9 3705.52 10112.9C3364.43 9916 3236.12 9429.18 3383.44 9172.05C3530.75 8914.91 3842.8 8910.69 3927.8 8926.53C4055.58 8950.81 4124.22 8884.29 4216.09 8869.5Z" fill="#F28F8F"/>
<path opacity="0.15" d="M4216.09 8869.5C4334.89 8851.02 4541.87 8821.98 4725.62 9055.36C4936.82 9319.36 4871.87 9722.22 4683.9 9927.09C4448.41 10183.7 4013.87 10290.9 3705.52 10112.9C3364.43 9916 3236.12 9429.18 3383.44 9172.05C3530.75 8914.91 3842.8 8910.69 3927.8 8926.53C4055.58 8950.81 4124.22 8884.29 4216.09 8869.5Z" fill="black"/>
<path opacity="0.1" d="M3853.88 10017.4C4192.86 10117.2 4595.73 9974.61 4804.29 9728.03C4776.63 9801.29 4735.63 9868.78 4683.38 9927.09C4447.89 10183.7 4013.34 10290.9 3704.99 10112.9C3446.27 9963.52 3310.57 9647.78 3323.77 9391.7C3328 9461.92 3480.06 9908.08 3853.88 10017.4Z" fill="black"/>
<g opacity="0.2">
<path d="M4360.77 8947.12C4434.69 8924.41 4558.77 8967.18 4639.02 9057.47C4733.89 9179.95 4787.66 9329.25 4792.67 9484.09C4805.87 9758.13 4581.47 9952.96 4550.85 9936.07C4520.22 9919.17 4669.12 9705.33 4509.66 9464.56C4350.21 9223.79 4239.33 8985.13 4360.77 8947.12Z" fill="white"/>
</g>
<g opacity="0.2">
<path d="M4428.35 8977.21C4510.72 8986.19 4626.88 9089.68 4669.12 9172.05C4711.36 9254.41 4712.94 9315.66 4703.44 9330.45C4686.02 9353.15 4496.46 9234.88 4430.46 9177.33C4337.53 9093.9 4295.29 8962.43 4428.35 8977.21Z" fill="white"/>
</g>
<path d="M4142.7 9122.41C4176.49 9080.7 4211.34 9055.89 4242.49 9100.77C4273.65 9145.65 4181.77 9247.02 4052.41 9238.05C3923.05 9229.07 3864.44 9159.37 3858.64 9118.72C3900.66 9160.88 3957.51 9184.95 4017.04 9185.77C4064.94 9179.64 4109.29 9157.28 4142.7 9122.41Z" fill="#B16668"/>
<path d="M4047.66 9206.89C4024.58 9094.03 4018.52 8978.35 4029.71 8863.69C4039.55 8749.38 4080.24 8639.88 4147.45 8546.89C4186.45 8522.1 4230.12 8505.56 4275.76 8498.32C4338.06 8485.64 4420.96 8510.99 4406.17 8539.5C4391.39 8568.01 4305.33 8604.97 4218.73 8730.64C4132.14 8856.3 4071.42 9075.95 4097.29 9193.69C4091.08 9200.31 4083.14 9205.06 4074.36 9207.39C4065.59 9209.72 4056.34 9209.55 4047.66 9206.89Z" fill="#37474F"/>
<path d="M4151.68 8546.36L4156.96 8542.67C4193.74 8522.19 4233.73 8508.08 4275.23 8500.96C4317.64 8491.87 4361.92 8499.03 4399.31 8521.02C4405.65 8528.94 4394.56 8544.25 4340.7 8563.79C4287.57 8584.04 4230.32 8591.11 4173.85 8584.38C4148.51 8580.16 4134.25 8561.15 4151.68 8546.36Z" fill="#455A64"/>
<path opacity="0.1" d="M4085.68 8993.58C4103.63 8843.1 4226.65 8693.68 4316.94 8619.76C4280 8653.55 4247.05 8691.46 4218.73 8732.75C4132.14 8857.89 4071.42 9078.06 4097.29 9195.81C4090.85 9202.06 4082.81 9206.41 4074.04 9208.37C4065.28 9210.32 4056.15 9209.81 4047.66 9206.9C4040.41 9172 4034.95 9136.75 4031.29 9101.3C4046.61 9158.32 4068.78 9132.45 4085.68 8993.58Z" fill="black"/>
<path d="M4023.37 8956.62C3977.87 8976.67 3927.77 8983.95 3878.45 8977.7C3829.12 8971.45 3782.42 8951.9 3743.36 8921.13C3704.3 8890.37 3674.34 8849.56 3656.7 8803.08C3639.06 8756.59 3634.39 8706.18 3643.21 8657.25C3684.44 8640.38 3729.11 8633.64 3773.48 8637.59C3817.86 8641.54 3860.63 8656.07 3898.24 8679.95C3939.82 8712.59 3972.92 8754.79 3994.7 8802.96C4016.49 8851.12 4026.32 8903.84 4023.37 8956.62Z" fill="#00ED64"/>
<path opacity="0.3" d="M4023.37 8956.62C3977.87 8976.67 3927.77 8983.95 3878.45 8977.7C3829.12 8971.45 3782.42 8951.9 3743.36 8921.13C3704.3 8890.37 3674.34 8849.56 3656.7 8803.08C3639.06 8756.59 3634.39 8706.18 3643.21 8657.25C3684.44 8640.38 3729.11 8633.64 3773.48 8637.59C3817.86 8641.54 3860.63 8656.07 3898.24 8679.95C3939.82 8712.59 3972.92 8754.79 3994.7 8802.96C4016.49 8851.12 4026.32 8903.84 4023.37 8956.62Z" fill="black"/>
<path d="M3643.21 8657.25C3684.44 8640.38 3729.11 8633.64 3773.48 8637.59C3817.86 8641.54 3860.63 8656.07 3898.24 8679.95C3939.82 8712.59 3972.92 8754.79 3994.7 8802.96C4016.49 8851.12 4026.32 8903.84 4023.37 8956.62C3906.68 8754.93 3643.21 8657.25 3643.21 8657.25Z" fill="#00ED64"/>
<path d="M3302.65 5627.04C3408.25 5650.28 3590.94 5694.63 3668.03 5951.24C3755.15 6242.69 3568.76 6557.91 3343.83 6666.68C3061.35 6803.96 2662.71 6749.58 2463.13 6498.25C2242.95 6220.52 2296.81 5770.66 2505.37 5604.34C2713.93 5438.02 2976.35 5537.28 3042.35 5579C3139.5 5641.3 3220.81 5608.56 3302.65 5627.04Z" fill="#F28F8F"/>
<path opacity="0.2" d="M3302.65 5627.04C3408.25 5650.28 3590.94 5694.63 3668.03 5951.24C3755.15 6242.69 3568.76 6557.91 3343.83 6666.68C3061.35 6803.96 2662.71 6749.58 2463.13 6498.25C2242.95 6220.52 2296.81 5770.66 2505.37 5604.34C2713.93 5438.02 2976.35 5537.28 3042.35 5579C3139.5 5641.3 3220.81 5608.56 3302.65 5627.04Z" fill="white"/>
<path opacity="0.1" d="M2618.89 6467.62C2746.85 6559.99 2897.65 6615.57 3054.95 6628.32C3212.26 6641.07 3370.04 6610.51 3511.21 6539.96C3463.84 6592.3 3407.07 6635.29 3343.83 6666.68C3061.35 6803.96 2662.71 6749.58 2463.13 6498.25C2387.1 6394.25 2339.72 6272.11 2325.73 6144.05C2311.74 6016 2331.62 5886.51 2383.4 5768.55C2362.81 5828.21 2342.22 6252.2 2618.89 6467.62Z" fill="black"/>
<g opacity="0.2">
<path d="M3397.69 5739.51C3467.39 5744.79 3556.09 5821.88 3594.11 5924.31C3633.05 6058.25 3628.8 6201.06 3581.96 6332.46C3502.24 6566.36 3248.8 6654.54 3229.79 6630.25C3210.78 6605.96 3405.08 6476.6 3351.23 6222.1C3297.37 5967.61 3283.64 5731.06 3397.69 5739.51Z" fill="white"/>
</g>
<g opacity="0.2">
<path d="M3444.68 5787.03C3510.68 5821.88 3573.52 5945.43 3581.44 6029.91C3589.36 6114.39 3570.88 6164.55 3558.73 6171.94C3536.56 6185.67 3417.23 6023.57 3380.8 5953.88C3330.11 5854.61 3338.03 5730.53 3444.68 5787.03Z" fill="white"/>
</g>
<path d="M3158.51 5812.37C3200.75 5788.61 3238.23 5779.64 3249.85 5827.68C3261.47 5875.73 3150.06 5929.59 3044.99 5880.48C2939.91 5831.38 2913.51 5752.18 2921.96 5716.28C2943.51 5764.19 2982.63 5801.99 3031.26 5821.88C3073.45 5833.96 3118.58 5830.59 3158.51 5812.37Z" fill="#B16668"/>
<path d="M3049.74 5853.03C3067.99 5751.01 3101.26 5652.25 3148.47 5559.99C3194.52 5468.82 3264.4 5391.82 3350.7 5337.17C3391.44 5328.63 3433.51 5328.63 3474.25 5337.17C3530.75 5347.2 3592 5396.31 3569.82 5414.79C3547.64 5433.27 3464.22 5436.44 3349.64 5513C3235.07 5589.56 3112.04 5753.24 3094.62 5860.42C3087.18 5863.41 3079.06 5864.31 3071.14 5863C3063.23 5861.7 3055.83 5858.25 3049.74 5853.03Z" fill="#37474F"/>
<path d="M3355.45 5337.17H3361.79C3399.21 5332.03 3437.24 5333.28 3474.25 5340.87C3512.85 5347.16 3547.59 5367.93 3571.4 5398.95C3574.04 5407.92 3559.79 5416.9 3508.04 5415.32C3456.94 5414.63 3406.76 5401.58 3361.79 5377.3C3341.72 5361.99 3336.44 5341.4 3355.45 5337.17Z" fill="#455A64"/>
<path opacity="0.1" d="M3152.17 5687.24C3217.64 5567.38 3369.71 5482.9 3468.97 5451.22C3426.7 5466.96 3386.46 5487.7 3349.11 5513C3235.07 5589.03 3111.51 5753.24 3094.09 5860.42C3086.58 5863.52 3078.36 5864.47 3070.34 5863.16C3062.32 5861.86 3054.82 5858.35 3048.68 5853.03C3048.68 5853.03 3055.02 5814.49 3069.8 5759.57C3065.05 5812.37 3091.98 5797.59 3152.17 5687.24Z" fill="black"/>
<path d="M3112.57 5635.49C3067.77 5637.43 3023.28 5627.08 2983.93 5605.57C2944.58 5584.06 2911.86 5552.2 2889.3 5513.45C2866.74 5474.69 2855.2 5430.5 2855.93 5385.66C2856.66 5340.82 2869.64 5297.03 2893.45 5259.03C2933.73 5258.8 2973.47 5268.28 3009.32 5286.66C3045.16 5305.04 3076.05 5331.78 3099.37 5364.63C3122.98 5405.46 3136.49 5451.35 3138.79 5498.46C3141.08 5545.57 3132.1 5592.55 3112.57 5635.49Z" fill="#00ED64"/>
<path opacity="0.3" d="M3112.57 5635.49C3067.77 5637.43 3023.28 5627.08 2983.93 5605.57C2944.58 5584.06 2911.86 5552.2 2889.3 5513.45C2866.74 5474.69 2855.2 5430.5 2855.93 5385.66C2856.66 5340.82 2869.64 5297.03 2893.45 5259.03C2933.73 5258.8 2973.47 5268.28 3009.32 5286.66C3045.16 5305.04 3076.05 5331.78 3099.37 5364.63C3122.98 5405.46 3136.49 5451.35 3138.79 5498.46C3141.08 5545.57 3132.1 5592.55 3112.57 5635.49Z" fill="black"/>
<path d="M2893.45 5259.03C2933.73 5258.8 2973.47 5268.28 3009.32 5286.66C3045.16 5305.04 3076.05 5331.78 3099.37 5364.63C3123.33 5405.72 3137.04 5451.99 3139.33 5499.5C3141.63 5547.02 3132.45 5594.39 3112.57 5637.6C3081.42 5428.52 2893.45 5259.03 2893.45 5259.03Z" fill="#00ED64"/>
<path d="M1953.61 6157.68C2066.6 6139.73 2263.54 6112.28 2438.84 6334.04C2637.9 6586.95 2577.18 6967.64 2398.71 7163.53C2174.31 7407.99 1761.41 7509.9 1467.84 7340.41C1143.12 7152.97 1021.16 6689.91 1161.08 6445.45C1301 6200.98 1598.26 6196.23 1679.05 6211.54C1800.49 6234.77 1865.96 6171.41 1953.61 6157.68Z" fill="#F28F8F"/>
<path opacity="0.05" d="M1953.61 6157.68C2066.6 6139.73 2263.54 6112.28 2438.84 6334.04C2637.9 6586.95 2577.18 6967.64 2398.71 7163.53C2174.31 7407.99 1761.41 7509.9 1467.84 7340.41C1143.12 7152.97 1021.16 6689.91 1161.08 6445.45C1301 6200.98 1598.26 6196.23 1679.05 6211.54C1800.49 6234.77 1865.96 6171.41 1953.61 6157.68Z" fill="black"/>
<path opacity="0.1" d="M1608.29 7249.59C1770.01 7290.56 1939.86 7286.54 2099.46 7237.97C2259.06 7189.39 2402.35 7098.1 2513.82 6973.97C2487.29 7043.63 2448.28 7107.87 2398.71 7163.53C2174.31 7407.99 1761.41 7509.9 1467.84 7340.41C1352.56 7267.79 1258.37 7166.17 1194.71 7045.7C1131.05 6925.24 1100.15 6790.17 1105.11 6654.01C1108.28 6721.06 1253.48 7145.58 1608.29 7249.59Z" fill="black"/>
<g opacity="0.2">
<path d="M2090.89 6231.08C2161.64 6209.43 2279.91 6250.09 2354.89 6336.68C2445.08 6453.3 2496.26 6595.36 2501.14 6742.71C2513.82 7003.54 2299.45 7188.87 2270.94 7172.51C2242.42 7156.14 2383.93 6953.38 2231.34 6724.23C2078.74 6495.08 1975.25 6266.98 2090.89 6231.08Z" fill="white"/>
</g>
<g opacity="0.2">
<path d="M2155.3 6259.59C2233.98 6268.57 2344.33 6365.19 2384.46 6444.92C2424.58 6524.65 2426.17 6581.67 2417.19 6593.82C2400.82 6615.46 2220.25 6503 2157.94 6448.09C2069.24 6371 2030.7 6245.86 2155.3 6259.59Z" fill="white"/>
</g>
<path d="M1884.97 6397.93C1917.17 6358.33 1950.44 6334.57 1980.53 6377.33C2010.63 6420.1 1921.93 6516.2 1799.43 6507.75C1676.93 6499.3 1620.44 6432.77 1614.63 6394.23C1654.25 6434.12 1707.84 6457.03 1764.05 6458.12C1810.12 6452.67 1852.86 6431.4 1884.97 6397.93Z" fill="#B16668"/>
<path d="M1793.09 6478.18C1771.27 6370.86 1765.58 6260.88 1776.2 6151.88C1785.82 6043.81 1824.5 5940.37 1888.13 5852.5C1925.12 5828.71 1966.66 5812.89 2010.1 5806.04C2069.24 5793.89 2148.44 5818.18 2134.18 5845.11C2119.93 5872.04 2038.61 5907.94 1956.25 6027.27C1873.88 6146.6 1816.33 6355.69 1840.61 6468.15C1834.33 6473.94 1826.6 6477.93 1818.23 6479.7C1809.87 6481.46 1801.19 6480.94 1793.09 6478.18Z" fill="#37474F"/>
<path d="M1892.36 5849.86L1897.11 5846.16C1931.97 5826.86 1969.8 5813.48 2009.05 5806.56C2049.46 5797.99 2091.62 5804.76 2127.32 5825.57C2133.13 5833.49 2122.57 5847.75 2071.35 5866.75C2020.88 5885.88 1966.55 5892.58 1912.95 5886.29C1889.19 5882.07 1875.46 5865.17 1892.36 5849.86Z" fill="#455A64"/>
<path opacity="0.1" d="M1829.53 6275.43C1846.95 6131.81 1963.64 5990.31 2049.7 5920.08C2014.42 5951.41 1983.05 5986.86 1956.25 6025.68C1873.88 6144.48 1816.33 6354.1 1840.61 6466.57C1834.33 6472.36 1826.6 6476.35 1818.23 6478.11C1809.87 6479.88 1801.18 6479.35 1793.09 6476.6C1793.09 6476.6 1784.12 6436.47 1777.25 6376.81C1792.57 6431.72 1813.16 6407.43 1829.53 6275.43Z" fill="black"/>
<path d="M1770.39 6240.05C1727.1 6259.19 1679.41 6266.19 1632.44 6260.3C1585.47 6254.4 1540.99 6235.84 1503.77 6206.59C1466.55 6177.35 1437.99 6138.52 1421.15 6094.28C1404.31 6050.04 1399.83 6002.05 1408.18 5955.46C1447.38 5939.2 1489.93 5932.63 1532.21 5936.31C1574.49 5939.98 1615.26 5953.8 1651.06 5976.58C1690.44 6007.87 1721.8 6048.09 1742.55 6093.9C1763.3 6139.72 1772.84 6189.82 1770.39 6240.05Z" fill="#00ED64"/>
<path opacity="0.3" d="M1770.39 6240.05C1727.1 6259.19 1679.41 6266.19 1632.44 6260.3C1585.47 6254.4 1540.99 6235.84 1503.77 6206.59C1466.55 6177.35 1437.99 6138.52 1421.15 6094.28C1404.31 6050.04 1399.83 6002.05 1408.18 5955.46C1447.38 5939.2 1489.93 5932.63 1532.21 5936.31C1574.49 5939.98 1615.26 5953.8 1651.06 5976.58C1690.44 6007.87 1721.8 6048.09 1742.55 6093.9C1763.3 6139.72 1772.84 6189.82 1770.39 6240.05Z" fill="black"/>
<path d="M1408.18 5955.46C1447.38 5939.2 1489.93 5932.63 1532.21 5936.31C1574.49 5939.98 1615.26 5953.8 1651.06 5976.58C1690.51 6007.92 1721.92 6048.23 1742.67 6094.14C1763.43 6140.06 1772.93 6190.26 1770.39 6240.58C1661.09 6048.39 1408.18 5955.46 1408.18 5955.46Z" fill="#00ED64"/>
<path d="M5608.43 8447.63C5735.68 8427.57 5957.97 8394.83 6155.44 8646.69C6380.37 8931.81 6313.84 9362.66 6110.56 9582.3C5857.65 9857.92 5391.43 9973.03 5060.37 9781.89C4694.46 9570.69 4556.65 9048.49 4714.53 8772.35C4872.4 8496.21 5207.68 8491.45 5299.02 8508.35C5435.78 8534.22 5509.7 8463.47 5608.43 8447.63Z" fill="#F28F8F"/>
<path opacity="0.1" d="M5608.43 8447.63C5735.68 8427.57 5957.97 8394.83 6155.44 8646.69C6380.37 8931.81 6313.84 9362.66 6110.56 9582.3C5857.65 9857.92 5391.43 9973.03 5060.37 9781.89C4694.46 9570.69 4556.65 9048.49 4714.53 8772.35C4872.4 8496.21 5207.68 8491.45 5299.02 8508.35C5435.78 8534.22 5509.7 8463.47 5608.43 8447.63Z" fill="black"/>
<path opacity="0.1" d="M5219.3 9679.46C5583.62 9785.06 6016.05 9633.52 6239.92 9368.47C6210.45 9447.16 6166.58 9519.67 6110.56 9582.31C5857.65 9857.92 5391.43 9973.03 5060.37 9781.89C4783.17 9623.49 4637.97 9282.93 4651.69 9007.84C4654.86 9085.98 4818.54 9561.19 5219.3 9679.46Z" fill="black"/>
<g opacity="0.2">
<path d="M5763.67 8531.05C5842.87 8506.24 5974.87 8552.17 6061.99 8649.33C6163.76 8780.79 6221.58 8940.95 6227.25 9107.1C6241.51 9401.73 5999.68 9610.29 5968 9592.34C5936.32 9574.38 6094.72 9344.7 5923.12 9085.98C5751.52 8827.26 5633.25 8571.18 5763.67 8531.05Z" fill="white"/>
</g>
<g opacity="0.2">
<path d="M5836 8563.26C5924.71 8572.77 6047.2 8684.17 6094.72 8774.46C6142.24 8864.75 6141.72 8928.64 6131.16 8942.37C6112.68 8967.18 5909.4 8839.93 5838.64 8778.16C5738.85 8688.4 5693.44 8547.42 5836 8563.26Z" fill="white"/>
</g>
<path d="M5531.35 8719.02C5567.25 8674.14 5605.27 8647.74 5636.95 8695.79C5668.63 8743.84 5571.47 8854.19 5433.14 8843.1C5294.8 8832.01 5231.44 8758.62 5224.58 8714.8C5269.27 8759.7 5329.67 8785.45 5393.01 8786.61C5445.61 8780.96 5494.57 8757.05 5531.35 8719.02Z" fill="#B16668"/>
<path d="M5427.33 8809.84C5402.59 8688.28 5396.19 8563.7 5408.32 8440.24C5431.03 8261.24 5509.17 8123.44 5534.51 8102.84C5576.27 8075.84 5623.21 8057.85 5672.32 8050.04C5739.38 8036.32 5830.72 8063.77 5812.24 8094.4C5793.76 8125.02 5704 8165.15 5611.07 8299.26C5518.15 8433.37 5452.67 8668.86 5480.66 8796.64C5473.84 8803.52 5465.25 8808.39 5455.85 8810.72C5446.44 8813.05 5436.57 8812.74 5427.33 8809.84Z" fill="#37474F"/>
<path d="M5539.27 8100.73L5545.07 8096.51C5584.57 8074.7 5627.38 8059.54 5671.79 8051.63C5717.29 8041.78 5764.82 8049.51 5804.85 8073.28C5811.71 8081.73 5800.1 8098.09 5742.02 8119.74C5684.94 8141.15 5623.56 8148.57 5563.03 8141.39C5535.57 8135.58 5520.79 8116.57 5539.27 8100.73Z" fill="#455A64"/>
<path opacity="0.1" d="M5467.99 8580.68C5488.05 8419.12 5620.05 8259.13 5716.67 8179.93C5676.9 8215.8 5641.46 8256.21 5611.07 8300.32C5518.67 8434.96 5452.67 8669.92 5480.66 8797.69C5473.77 8804.3 5465.23 8808.92 5455.93 8811.05C5446.64 8813.19 5436.93 8812.77 5427.86 8809.84C5427.86 8809.84 5417.83 8763.9 5410.43 8696.85C5426.8 8757.04 5450.03 8729.58 5467.99 8580.68Z" fill="black"/>
<path d="M5401.46 8541.08C5348.69 8561.04 5291.58 8566.67 5235.94 8557.39C5180.29 8548.12 5128.1 8524.27 5084.66 8488.28C4966.38 8387.44 4991.73 8216.89 4991.73 8216.89C5035.95 8198.83 5083.85 8191.6 5131.43 8195.83C5179.01 8200.06 5224.89 8215.6 5265.23 8241.18C5310.6 8276.34 5346.71 8322.03 5370.44 8374.28C5394.18 8426.54 5404.82 8483.79 5401.46 8541.08Z" fill="#00ED64"/>
<path opacity="0.3" d="M5401.46 8541.08C5348.69 8561.04 5291.58 8566.67 5235.94 8557.39C5180.29 8548.12 5128.1 8524.27 5084.66 8488.28C4966.38 8387.44 4991.73 8216.89 4991.73 8216.89C5035.95 8198.83 5083.85 8191.6 5131.43 8195.83C5179.01 8200.06 5224.89 8215.6 5265.23 8241.18C5310.6 8276.34 5346.71 8322.03 5370.44 8374.28C5394.18 8426.54 5404.82 8483.79 5401.46 8541.08Z" fill="black"/>
<path d="M4993.31 8219.53C5037.53 8201.47 5085.43 8194.25 5133.01 8198.47C5180.59 8202.7 5226.47 8218.25 5266.82 8243.82C5311.51 8278.89 5347.08 8324.22 5370.52 8375.97C5393.96 8427.72 5404.57 8484.36 5401.46 8541.08C5276.32 8324.6 4993.31 8219.53 4993.31 8219.53Z" fill="#00ED64"/>
<path d="M4204.48 5892.1C4094.12 5874.68 3901.4 5847.75 3729.28 6064.76C3534.44 6311.86 3593.58 6685.69 3768.35 6875.77C3987.47 7114.95 4391.39 7214.75 4678.62 7048.95C4995.42 6865.74 5115.28 6415.35 4978.53 6173.53C4841.78 5931.7 4550.85 5930.12 4472.17 5944.9C4353.9 5967.61 4290.54 5905.83 4204.48 5892.1Z" fill="#F28F8F"/>
<path opacity="0.05" d="M4204.48 5892.1C4094.12 5874.68 3901.4 5847.75 3729.28 6064.76C3534.44 6311.86 3593.58 6685.69 3768.35 6875.77C3987.47 7114.95 4391.39 7214.75 4678.62 7048.95C4995.42 6865.74 5115.28 6415.35 4978.53 6173.53C4841.78 5931.7 4550.85 5930.12 4472.17 5944.9C4353.9 5967.61 4290.54 5905.83 4204.48 5892.1Z" fill="black"/>
<path opacity="0.1" d="M4541.87 6960.25C4383.77 6999.86 4217.87 6995.67 4061.97 6948.14C3906.07 6900.6 3766.05 6811.52 3656.94 6690.44C3682.58 6758.67 3720.72 6821.52 3769.4 6875.77C3988.52 7114.95 4392.45 7214.75 4679.68 7048.95C4792.4 6977.95 4884.49 6878.59 4946.76 6760.82C5009.03 6643.05 5039.28 6511 5034.5 6377.86C5031.33 6445.98 4889.3 6858.34 4541.87 6960.25Z" fill="black"/>
<g opacity="0.2">
<path d="M4070.37 5964.44C4001.2 5942.79 3885.56 5982.92 3811.12 6066.87C3722.9 6180.91 3672.84 6319.83 3668.03 6463.93C3655.88 6718.95 3865.5 6900.06 3892.96 6886.33C3920.41 6872.6 3783.13 6671.96 3931.5 6448.09C4079.87 6224.21 4183.36 5999.29 4070.37 5964.44Z" fill="white"/>
</g>
<g opacity="0.2">
<path d="M4007 5992.42C3930.44 6000.87 3822.73 6098.02 3783.13 6173.53C3743.53 6249.03 3742.48 6307.11 3751.45 6318.73C3767.29 6340.37 3943.65 6230.02 4004.89 6176.69C4089.9 6100.66 4131.09 5978.69 4007 5992.42Z" fill="white"/>
</g>
<path d="M4271.53 6129.17C4240.38 6090.1 4207.65 6067.4 4178.61 6108.58C4149.56 6149.77 4235.1 6244.81 4355.49 6236.36C4475.87 6227.91 4530.25 6162.97 4536.06 6125.48C4497.29 6164.5 4444.81 6186.86 4389.81 6187.78C4344.81 6182.43 4303.04 6161.73 4271.53 6129.17Z" fill="#B16668"/>
<path d="M4361.82 6206.26C4383.04 6101.18 4388.55 5993.53 4378.19 5886.82C4368.72 5781.02 4330.76 5679.75 4268.37 5593.78C4232.13 5570.61 4191.51 5555.15 4149.04 5548.37C4091.48 5536.76 4013.87 5560.52 4028.13 5586.92C4042.38 5613.32 4121.58 5648.17 4202.37 5764.85C4283.15 5881.54 4339.12 6085.88 4315.36 6195.7C4321.43 6201.49 4328.95 6205.53 4337.13 6207.39C4345.31 6209.25 4353.85 6208.86 4361.82 6206.26Z" fill="#37474F"/>
<path d="M4264.67 5591.14L4259.39 5587.97C4225.26 5568.82 4188.12 5555.61 4149.57 5548.9C4110.18 5540.36 4069.01 5547.16 4034.46 5567.91C4028.65 5575.3 4038.69 5589.03 4087.26 5608.04C4136.78 5626.52 4189.97 5633.03 4242.49 5627.05C4267.84 5622.82 4281.04 5604.87 4264.67 5591.14Z" fill="#455A64"/>
<path opacity="0.1" d="M4325.92 6007.73C4309.02 5867.29 4194.97 5728.42 4110.49 5659.78C4145.12 5691.29 4175.96 5726.73 4202.37 5765.38C4282.62 5881.54 4339.12 6086.41 4315.36 6196.23C4321.43 6202.02 4328.95 6206.06 4337.13 6207.92C4345.31 6209.78 4353.85 6209.39 4361.82 6206.79C4361.82 6206.79 4370.27 6167.19 4376.61 6108.58C4362.35 6160.33 4341.76 6136.57 4325.92 6007.73Z" fill="black"/>
<path d="M4384 5970.77C4426.31 5989.59 4472.94 5996.5 4518.89 5990.77C4564.84 5985.04 4608.35 5966.89 4644.74 5938.26C4681.13 5909.64 4709.03 5871.63 4725.42 5828.32C4741.81 5785.02 4746.08 5738.07 4737.76 5692.52C4699.46 5676.72 4657.91 5670.39 4616.64 5674.06C4575.37 5677.74 4535.59 5691.32 4500.69 5713.64C4462.03 5743.99 4431.25 5783.2 4410.94 5827.95C4390.63 5872.71 4381.39 5921.7 4384 5970.77Z" fill="#00ED64"/>
<path opacity="0.3" d="M4384 5970.77C4426.31 5989.59 4472.94 5996.5 4518.89 5990.77C4564.84 5985.04 4608.35 5966.89 4644.74 5938.26C4681.13 5909.64 4709.03 5871.63 4725.42 5828.32C4741.81 5785.02 4746.08 5738.07 4737.76 5692.52C4699.46 5676.72 4657.91 5670.39 4616.64 5674.06C4575.37 5677.74 4535.59 5691.32 4500.69 5713.64C4462.03 5743.99 4431.25 5783.2 4410.94 5827.95C4390.63 5872.71 4381.39 5921.7 4384 5970.77Z" fill="black"/>
<path d="M4737.76 5694.63C4699.46 5678.83 4657.91 5672.5 4616.64 5676.17C4575.37 5679.85 4535.59 5693.43 4500.69 5715.75C4462.03 5746.1 4431.25 5785.31 4410.94 5830.07C4390.63 5874.82 4381.39 5923.81 4384 5972.88C4492.77 5785.44 4737.76 5694.63 4737.76 5694.63Z" fill="#00ED64"/>
<path d="M5612.13 6630.77C5727.23 6612.29 5928.93 6584.31 6107.92 6811.35C6311.73 7069.54 6249.96 7460.79 6067.27 7659.32C5837.59 7909.59 5415.19 8014.14 5116.86 7840.43C4785.28 7648.76 4660.14 7175.14 4803.23 6924.87C4946.32 6674.6 5250.45 6670.37 5331.23 6686.21C5455.31 6709.97 5522.37 6645.03 5612.13 6630.77Z" fill="#F28F8F"/>
<path opacity="0.1" d="M5258.9 7747.5C5589.43 7844.65 5981.2 7705.79 6184.48 7465.55C6157.7 7536.81 6117.96 7602.51 6067.27 7659.32C5837.59 7909.6 5415.19 8014.14 5116.86 7840.43C4865.54 7695.23 4733.01 7387.93 4747.26 7138.71C4747.26 7207.35 4895.63 7640.84 5258.9 7747.5Z" fill="black"/>
<g opacity="0.2">
<path d="M5752.58 6706.28C5824.39 6683.58 5945.3 6725.82 6022.92 6811.88C6115.22 6931.05 6167.68 7076.24 6172.87 7226.89C6186.07 7494.06 5966.42 7683.61 5937.38 7666.72C5908.34 7649.82 6052.48 7442.31 5897.25 7207.88C5742.02 6973.45 5634.31 6742.71 5752.58 6706.28Z" fill="white"/>
</g>
<g opacity="0.2">
<path d="M5818.05 6735.32C5898.84 6744.29 6011.3 6845.14 6052.48 6924.87C6093.67 7004.6 6095.25 7064.26 6085.75 7076.93C6068.85 7099.11 5884.58 6984.01 5821.75 6928.04C5729.87 6848.84 5688.69 6721.06 5818.05 6735.32Z" fill="white"/>
</g>
<path d="M5541.38 6876.82C5574.64 6836.17 5608.43 6811.88 5639.06 6855.7C5669.68 6899.53 5579.39 6997.74 5454.26 6988.76C5329.12 6979.78 5271.04 6912.2 5265.23 6873.13C5305.82 6913.65 5360.49 6936.92 5417.83 6938.07C5464.91 6932.76 5508.64 6911.09 5541.38 6876.82Z" fill="#B16668"/>
<path d="M5447.39 6958.66C5425.26 6848.88 5419.56 6736.42 5430.5 6624.97C5440.15 6514.37 5479.77 6408.5 5545.07 6318.73C5582.72 6294.12 5625.22 6277.91 5669.68 6271.21C5730.4 6258.53 5811.19 6283.88 5796.4 6311.33C5781.62 6338.79 5698.72 6375.22 5614.24 6497.19C5529.76 6619.16 5471.15 6833.53 5495.97 6948.1C5489.67 6954.23 5481.78 6958.47 5473.19 6960.33C5464.61 6962.2 5455.67 6961.62 5447.39 6958.66Z" fill="#37474F"/>
<path d="M5548.77 6316.09L5554.05 6312.39C5589.84 6292.42 5628.76 6278.68 5669.15 6271.73C5710.48 6262.79 5753.66 6269.77 5790.07 6291.27C5795.87 6299.19 5785.31 6313.97 5733.04 6332.98C5681.21 6352.54 5625.45 6359.42 5570.42 6353.05C5545.6 6348.82 5531.87 6330.34 5548.77 6316.09Z" fill="#455A64"/>
<path opacity="0.1" d="M5484.35 6751.16C5502.31 6604.38 5622.16 6459.7 5709.81 6387.89C5673.87 6420.54 5641.8 6457.22 5614.24 6497.19C5530.29 6619.16 5471.15 6833.53 5495.97 6948.1C5489.67 6954.23 5481.78 6958.47 5473.19 6960.33C5464.61 6962.2 5455.67 6961.62 5447.39 6958.67C5447.39 6958.67 5438.42 6917.48 5431.55 6856.76C5446.87 6911.14 5467.99 6886.33 5484.35 6751.16Z" fill="black"/>
<path d="M5424.16 6715.26C5379.92 6735.7 5330.89 6743.49 5282.49 6737.78C5234.1 6732.07 5188.22 6713.08 5149.96 6682.9C5111.69 6652.72 5082.52 6612.55 5065.69 6566.81C5048.85 6521.08 5045 6471.58 5054.56 6423.8C5094.69 6407.41 5138.16 6400.87 5181.34 6404.73C5224.51 6408.58 5266.13 6422.73 5302.72 6445.97C5343.04 6477.86 5375.12 6518.96 5396.25 6565.82C5417.39 6612.68 5426.96 6663.93 5424.16 6715.26Z" fill="#00ED64"/>
<path opacity="0.3" d="M5424.16 6715.26C5379.92 6735.7 5330.89 6743.49 5282.49 6737.78C5234.1 6732.07 5188.22 6713.08 5149.96 6682.9C5111.69 6652.72 5082.52 6612.55 5065.69 6566.81C5048.85 6521.08 5045 6471.58 5054.56 6423.8C5094.69 6407.41 5138.16 6400.87 5181.34 6404.73C5224.51 6408.58 5266.13 6422.73 5302.72 6445.97C5343.04 6477.86 5375.12 6518.96 5396.25 6565.82C5417.39 6612.68 5426.96 6663.93 5424.16 6715.26Z" fill="black"/>
<path d="M5054.03 6423.8C5094.16 6407.41 5137.63 6400.87 5180.81 6404.73C5223.98 6408.58 5265.61 6422.73 5302.19 6445.97C5342.61 6477.8 5374.79 6518.88 5396.02 6565.74C5417.24 6612.6 5426.9 6663.88 5424.16 6715.26C5310.64 6519.37 5054.03 6423.8 5054.03 6423.8Z" fill="#00ED64"/>
<path d="M3044.99 6503.53C2931.47 6485.58 2732.41 6457.59 2556.06 6681.47C2354.89 6936.49 2415.61 7321.93 2596.18 7518.35C2822.17 7764.92 3239.29 7867.89 3535.5 7697.34C3862.86 7508.32 3985.89 7041.03 3844.38 6793.93C3702.88 6546.82 3403.5 6542.6 3322.19 6557.91C3199.16 6581.14 3133.69 6517.78 3044.99 6503.53Z" fill="#F28F8F"/>
<path opacity="0.1" d="M3392.94 7607.58C3067.16 7703.15 2680.66 7566.39 2480.02 7329.32C2506.59 7399.67 2545.97 7464.48 2596.18 7520.46C2822.17 7767.04 3239.29 7870 3535.5 7699.45C3651.73 7626.05 3746.68 7523.46 3810.89 7401.91C3875.09 7280.35 3906.3 7144.09 3901.4 7006.71C3898.24 7072.19 3751.98 7501.98 3392.94 7607.58Z" fill="black"/>
<g opacity="0.2">
<path d="M2906.65 6577.98C2835.37 6555.8 2716.04 6596.98 2639.48 6683.58C2548.54 6801.11 2496.82 6944.26 2491.64 7092.78C2478.97 7356.78 2695.45 7543.16 2723.96 7526.8C2752.47 7510.43 2610.44 7305.56 2763.56 7074.3C2916.68 6843.03 3022.81 6614.41 2906.65 6577.98Z" fill="white"/>
</g>
<g opacity="0.2">
<path d="M2841.71 6607.02C2761.98 6615.46 2651.1 6712.62 2610.44 6793.4C2569.78 6874.18 2568.2 6931.74 2577.7 6943.88C2594.07 6966.06 2776.23 6852.01 2839.06 6797.1C2928.3 6718.95 2969.48 6592.76 2841.71 6607.02Z" fill="white"/>
</g>
<path d="M3114.15 6746.41C3081.95 6706.28 3048.15 6682.52 3018.06 6725.29C2987.96 6768.06 3076.67 6865.74 3200.75 6857.29C3324.83 6848.84 3381.32 6781.26 3387.13 6742.71C3347.09 6782.94 3292.88 6805.87 3236.12 6806.6C3189.7 6801.35 3146.56 6780.06 3114.15 6746.41Z" fill="#B16668"/>
<path d="M3207.08 6827.19C3229.19 6719.01 3234.89 6608.12 3223.98 6498.25C3214.16 6389.08 3175.13 6284.58 3110.99 6195.7C3073.56 6171.9 3031.72 6155.92 2987.96 6148.71C2928.3 6136.57 2848.57 6161.38 2862.82 6188.31C2877.08 6215.24 2959.45 6251.67 3042.87 6372.05C3126.3 6492.44 3183.85 6703.64 3159.03 6816.63C3165.32 6822.61 3173.12 6826.75 3181.58 6828.61C3190.05 6830.47 3198.87 6829.98 3207.08 6827.19Z" fill="#37474F"/>
<path d="M3107.29 6193.06L3102.01 6189.37C3066.7 6169.59 3028.33 6155.84 2988.49 6148.71C2947.67 6139.97 2905.06 6146.94 2869.16 6168.25C2863.35 6176.17 2873.91 6190.42 2925.66 6209.43C2976.08 6228.74 3030.41 6235.62 3084.06 6229.49C3110.46 6225.8 3123.66 6207.32 3107.29 6193.06Z" fill="#455A64"/>
<path opacity="0.1" d="M3170.65 6622.33C3152.7 6477.65 3034.95 6334.57 2948.36 6263.81C2983.79 6295.29 3015.5 6330.72 3042.87 6369.41C3125.77 6489.8 3183.85 6701 3159.03 6813.99C3165.32 6819.97 3173.12 6824.11 3181.59 6825.97C3190.05 6827.83 3198.87 6827.34 3207.08 6824.55C3207.08 6824.55 3216.06 6783.9 3222.92 6723.7C3207.61 6780.2 3187.02 6755.91 3170.65 6622.33Z" fill="black"/>
<path d="M3230.31 6586.95C3273.99 6605.82 3321.95 6612.53 3369.12 6606.38C3416.29 6600.24 3460.93 6581.46 3498.31 6552.03C3535.69 6522.6 3564.42 6483.62 3581.47 6439.21C3598.52 6394.79 3603.25 6346.6 3595.16 6299.72C3555.71 6283.27 3512.85 6276.64 3470.26 6280.41C3427.68 6284.18 3386.65 6298.24 3350.7 6321.37C3310.83 6352.76 3279.08 6393.27 3258.13 6439.49C3237.18 6485.7 3227.64 6536.28 3230.31 6586.95Z" fill="#00ED64"/>
<path opacity="0.3" d="M3230.31 6586.95C3273.99 6605.82 3321.95 6612.53 3369.12 6606.38C3416.29 6600.24 3460.93 6581.46 3498.31 6552.03C3535.69 6522.6 3564.42 6483.62 3581.47 6439.21C3598.52 6394.79 3603.25 6346.6 3595.16 6299.72C3555.71 6283.27 3512.85 6276.64 3470.26 6280.41C3427.68 6284.18 3386.65 6298.24 3350.7 6321.37C3310.83 6352.76 3279.08 6393.27 3258.13 6439.49C3237.18 6485.7 3227.64 6536.28 3230.31 6586.95Z" fill="black"/>
<path d="M3595.16 6299.72C3555.71 6283.27 3512.85 6276.64 3470.26 6280.41C3427.68 6284.18 3386.65 6298.24 3350.7 6321.37C3311.05 6352.6 3279.45 6392.85 3258.51 6438.78C3237.57 6484.7 3227.9 6534.96 3230.31 6585.37C3342.25 6393.18 3595.16 6299.72 3595.16 6299.72Z" fill="#00ED64"/>
<path d="M4429.41 7026.78C4556.65 7006.71 4778.94 6973.98 4975.89 7225.83C5200.82 7510.95 5134.29 7942.33 4931.01 8161.45C4678.09 8437.6 4212.4 8552.7 3881.34 8361.56C3514.91 8150.36 3377.63 7627.64 3535.5 7351.5C3693.37 7075.35 4028.12 7070.6 4119.47 7087.5C4256.75 7115.48 4330.14 7044.2 4429.41 7026.78Z" fill="#F28F8F"/>
<path opacity="0.2" d="M4429.41 7026.78C4556.65 7006.71 4778.94 6973.98 4975.89 7225.83C5200.82 7510.95 5134.29 7942.33 4931.01 8161.45C4678.09 8437.6 4212.4 8552.7 3881.34 8361.56C3514.91 8150.36 3377.63 7627.64 3535.5 7351.5C3693.37 7075.35 4028.12 7070.6 4119.47 7087.5C4256.75 7115.48 4330.14 7044.2 4429.41 7026.78Z" fill="white"/>
<path opacity="0.1" d="M4040.27 8260.19C4404.59 8365.79 4836.5 8214.25 5060.9 7949.72C5031 8027.53 4986.96 8099.14 4931.01 8160.92C4678.09 8437.07 4212.4 8552.17 3881.34 8361.04C3603.61 8202.64 3458.94 7861.55 3472.14 7586.99C3475.31 7664.07 3638.99 8142.97 4040.27 8260.19Z" fill="black"/>
<g opacity="0.2">
<path d="M4584.11 7111.79C4663.84 7086.97 4795.31 7133.43 4882.96 7230.06C4984.73 7361.52 5042.55 7521.68 5048.22 7687.84C5061.95 7982.46 4820.13 8191.55 4788.45 8173.07C4756.77 8154.59 4915.17 7925.44 4744.1 7667.24C4573.02 7409.05 4453.69 7151.91 4584.11 7111.79Z" fill="white"/>
</g>
<g opacity="0.2">
<path d="M4656.98 7143.99C4745.15 7153.5 4868.18 7264.9 4915.17 7352.55C4962.16 7440.2 4962.16 7506.73 4951.6 7520.46C4933.12 7545.27 4729.84 7418.03 4659.09 7356.25C4559.29 7269.13 4512.3 7128.15 4656.98 7143.99Z" fill="white"/>
</g>
<path d="M4353.9 7300.28C4390.33 7255.4 4427.82 7228.47 4459.5 7276.52C4491.18 7324.57 4393.5 7434.92 4255.17 7423.83C4116.83 7412.75 4053.47 7339.35 4047.13 7295.53C4091.73 7340.57 4152.19 7366.35 4215.57 7367.34C4268.07 7361.75 4316.99 7338.04 4353.9 7300.28Z" fill="#B16668"/>
<path d="M4248.3 7390.57C4223.84 7268.97 4217.43 7144.43 4229.29 7020.97C4252 6841.45 4330.67 6704.17 4356.01 6683.05C4397.61 6656.11 4444.36 6638.13 4493.29 6630.25C4560.35 6616.52 4651.69 6643.98 4633.21 6674.6C4614.73 6705.22 4527.61 6745.35 4432.57 6879.99C4337.53 7014.63 4274.17 7249.59 4302.16 7377.37C4295.29 7384.35 4286.61 7389.28 4277.1 7391.61C4267.59 7393.94 4257.62 7393.58 4248.3 7390.57Z" fill="#37474F"/>
<path d="M4359.71 6681.46L4365.52 6677.24C4404.86 6654.99 4447.72 6639.63 4492.24 6631.83C4537.91 6622.26 4585.51 6629.98 4625.82 6653.48C4632.16 6662.45 4620.54 6678.3 4562.46 6699.94C4505.45 6721.63 4444.01 6729.07 4383.47 6721.59C4353.9 6717.9 4341.23 6697.3 4359.71 6681.46Z" fill="#455A64"/>
<path opacity="0.1" d="M4288.96 7161.42C4308.49 6999.85 4440.49 6839.86 4537.65 6760.66C4497.72 6796.59 4462.27 6837.18 4432.05 6881.58C4339.12 7015.69 4273.65 7251.18 4301.63 7378.95C4294.69 7385.47 4286.12 7389.99 4276.83 7392.03C4267.54 7394.08 4257.86 7393.57 4248.83 7390.57C4248.83 7390.57 4239.33 7345.16 4231.41 7277.58C4248.3 7338.3 4270.48 7310.31 4288.96 7161.42Z" fill="black"/>
<path d="M4222.43 7121.82C4169.65 7141.66 4112.56 7147.23 4056.94 7137.96C4001.31 7128.69 3949.12 7104.91 3905.63 7069.02C3787.36 6968.17 3812.7 6797.62 3812.7 6797.62C3857.02 6779.6 3905 6772.4 3952.65 6776.62C4000.31 6780.85 4046.28 6796.37 4086.73 6821.91C4131.97 6857.16 4167.95 6902.88 4191.59 6955.12C4215.23 7007.36 4225.81 7064.57 4222.43 7121.82Z" fill="#00ED64"/>
<path opacity="0.3" d="M4222.43 7121.82C4169.65 7141.66 4112.56 7147.23 4056.94 7137.96C4001.31 7128.69 3949.12 7104.91 3905.63 7069.02C3787.36 6968.17 3812.7 6797.62 3812.7 6797.62C3857.02 6779.6 3905 6772.4 3952.65 6776.62C4000.31 6780.85 4046.28 6796.37 4086.73 6821.91C4131.97 6857.16 4167.95 6902.88 4191.59 6955.12C4215.23 7007.36 4225.81 7064.57 4222.43 7121.82Z" fill="black"/>
<path d="M3813.76 6800.26C3858.08 6782.24 3906.05 6775.04 3953.71 6779.26C4001.37 6783.49 4047.33 6799.01 4087.79 6824.55C4132.45 6859.65 4168 6904.99 4191.43 6956.73C4214.87 7008.47 4225.5 7065.1 4222.43 7121.82C4096.76 6905.34 3813.76 6800.26 3813.76 6800.26Z" fill="#00ED64"/>
<path d="M4548.73 8266.52L4408.29 8347.31L4268.37 8266.52L4408.29 8185.74L4548.73 8266.52Z" fill="#00ED64"/>
<path d="M4408.29 8347.31V10935L4548.73 10854.3V8266.53L4408.29 8347.31Z" fill="#00ED64"/>
<path opacity="0.25" d="M4408.29 8347.31V10935L4548.73 10854.3V8266.53L4408.29 8347.31Z" fill="black"/>
<path d="M4408.29 8347.31V10935L4268.37 10854.3V8266.53L4408.29 8347.31Z" fill="#00ED64"/>
<path opacity="0.15" d="M4408.29 8347.31V10935L4268.37 10854.3V8266.53L4408.29 8347.31Z" fill="black"/>
<path opacity="0.2" d="M4548.73 8913.33L4408.29 8994.11L4268.37 8913.33V8971.41L4408.29 9052.19L4548.73 8971.41V8913.33Z" fill="black"/>
<path opacity="0.2" d="M4548.73 9883.79L4408.29 9964.58L4268.37 9883.79V9941.35L4408.29 10022.7L4548.73 9941.87V9883.79Z" fill="black"/>
<path opacity="0.2" d="M4548.73 8266.53L4408.29 8347.31L4268.37 8266.53L4408.29 8324.08L4548.73 8266.53Z" fill="black"/>
<path d="M1047.03 6244.81L907.107 6325.59L766.658 6244.81L907.107 6164.02L1047.03 6244.81Z" fill="#00ED64"/>
<path d="M907.107 6325.59V8913.33L1047.03 8832.54V6244.81L907.107 6325.59Z" fill="#00ED64"/>
<path opacity="0.25" d="M907.107 6325.59V8913.33L1047.03 8832.54V6244.81L907.107 6325.59Z" fill="black"/>
<path d="M907.107 6325.59V8913.33L766.658 8832.54V6244.81L907.107 6325.59Z" fill="#00ED64"/>
<path opacity="0.15" d="M907.107 6325.59V8913.33L766.658 8832.54V6244.81L907.107 6325.59Z" fill="black"/>
<path opacity="0.2" d="M766.658 6891.61L907.107 6972.39V7033.11L766.658 6952.33V6891.61Z" fill="black"/>
<path opacity="0.2" d="M766.658 7862.08L907.107 7942.86V8003.58L766.658 7922.8V7862.08Z" fill="black"/>
<path opacity="0.2" d="M907.107 6164.02L766.658 6244.81L907.107 6325.59L807.315 6244.81L907.107 6164.02Z" fill="black"/>
<path d="M4408.29 8347.31L766.658 6244.81L626.738 6325.59L4268.37 8428.09L4408.29 8347.31Z" fill="#00ED64"/>
<path d="M4268.37 8428.09V8913.33L626.738 6810.82V6325.59L4268.37 8428.09Z" fill="#00ED64"/>
<path opacity="0.15" d="M4268.37 8428.09V8913.33L626.738 6810.82V6325.59L4268.37 8428.09Z" fill="black"/>
<path opacity="0.2" d="M647.858 6822.97L626.738 6325.59V6810.82L647.858 6822.97Z" fill="black"/>
<path d="M4268.37 8428.09L4408.29 8508.88L6929.49 7053.18L6789.57 6972.39L4268.37 8428.09Z" fill="#00ED64"/>
<path d="M4268.37 8428.09V8913.33L4408.29 8994.11V8508.88L4268.37 8428.09Z" fill="#00ED64"/>
<path opacity="0.2" d="M4268.37 8428.09V8913.33L4408.29 8994.11V8508.88L4268.37 8428.09Z" fill="black"/>
<path opacity="0.2" d="M4268.37 8913.33V8428.09L4247.25 8901.18L4268.37 8913.33Z" fill="black"/>
<path d="M6929.49 7053.18V7538.41L4408.29 8994.11V8508.88L6929.49 7053.18Z" fill="#00ED64"/>
<path opacity="0.25" d="M6929.49 7053.18V7538.41L4408.29 8994.11V8508.88L6929.49 7053.18Z" fill="black"/>
<path d="M4408.29 9317.78L766.658 7215.27L626.738 7296.06L4268.37 9398.56L4408.29 9317.78Z" fill="#00ED64"/>
<path d="M4268.37 9398.56V9883.79L626.738 7781.29V7296.06L4268.37 9398.56Z" fill="#00ED64"/>
<path opacity="0.15" d="M4268.37 9398.56V9883.79L626.738 7781.29V7296.06L4268.37 9398.56Z" fill="black"/>
<path opacity="0.2" d="M647.858 7793.44L626.738 7296.06V7781.29L647.858 7793.44Z" fill="black"/>
<path d="M4268.37 9398.56L4408.29 9479.34L6929.49 8023.64L6789.57 7942.86L4268.37 9398.56Z" fill="#00ED64"/>
<path d="M4268.37 9398.56V9883.79L4408.29 9964.58V9479.34L4268.37 9398.56Z" fill="#00ED64"/>
<path opacity="0.2" d="M4268.37 9398.56V9883.79L4408.29 9964.58V9479.34L4268.37 9398.56Z" fill="black"/>
<path opacity="0.2" d="M4268.37 9883.79V9398.56L4247.25 9871.65L4268.37 9883.79Z" fill="black"/>
<path d="M6929.49 8023.64V8508.88L4408.29 9964.58V9479.34L6929.49 8023.64Z" fill="#00ED64"/>
<path opacity="0.25" d="M6929.49 8023.64V8508.88L4408.29 9964.58V9479.34L6929.49 8023.64Z" fill="black"/>
<path d="M4408.29 10288.2L766.658 8185.74L626.738 8266.52L4268.37 10369L4408.29 10288.2Z" fill="#00ED64"/>
<path d="M4268.37 10369V10854.3L626.738 8751.76V8266.53L4268.37 10369Z" fill="#00ED64"/>
<path opacity="0.15" d="M4268.37 10369V10854.3L626.738 8751.76V8266.53L4268.37 10369Z" fill="black"/>
<path opacity="0.2" d="M647.858 8763.9L626.738 8266.53V8751.76L647.858 8763.9Z" fill="black"/>
<path d="M4268.37 10369L4408.29 10449.8L6929.49 8994.11L6789.57 8913.33L4268.37 10369Z" fill="#00ED64"/>
<path d="M4268.37 10369V10854.3L4408.29 10935V10449.8L4268.37 10369Z" fill="#00ED64"/>
<path opacity="0.2" d="M4268.37 10369V10854.3L4408.29 10935V10449.8L4268.37 10369Z" fill="black"/>
<path opacity="0.2" d="M4268.37 10854.3V10369L4247.25 10842.1L4268.37 10854.3Z" fill="black"/>
<path d="M6929.49 8994.11V9479.35L4408.29 10935V10449.8L6929.49 8994.11Z" fill="#00ED64"/>
<path opacity="0.25" d="M6929.49 8994.11V9479.35L4408.29 10935V10449.8L6929.49 8994.11Z" fill="black"/>
<path d="M5330.71 2327.56C5951.11 2569.39 6615.33 2351.85 6813.86 1841.8C7012.39 1331.75 6671.3 722.436 6050.9 480.611C5430.5 238.786 4766.27 455.795 4567.22 965.845C4368.16 1475.89 4710.3 2085.21 5330.71 2327.56Z" fill="#00ED64"/>
<path d="M4982.81 3371.26C3871.43 2878.53 3216.52 1924.13 3520.03 1239.55C3823.54 554.965 4970.53 399.436 6081.92 892.165C7193.3 1384.89 7848.21 2339.3 7544.7 3023.88C7241.19 3708.46 6094.2 3863.99 4982.81 3371.26Z" fill="#00ED64"/>
<path opacity="0.3" d="M4982.81 3371.26C3871.43 2878.53 3216.52 1924.13 3520.03 1239.55C3823.54 554.965 4970.53 399.436 6081.92 892.165C7193.3 1384.89 7848.21 2339.3 7544.7 3023.88C7241.19 3708.46 6094.2 3863.99 4982.81 3371.26Z" fill="black"/>
<path d="M5825.97 1932.62C5845.51 2143.82 6033.48 2407.82 6033.48 2407.82L6016.05 2703.5L6002.85 3125.9C6075.22 3109.59 6142.79 3076.68 6200.25 3029.76C6257.71 2982.84 6303.46 2923.21 6333.91 2855.56C6350.83 2792.51 6390.04 2737.74 6444.26 2701.39C6490.72 2672.88 6542.47 2653.34 6587.88 2622.72C6633.12 2591.27 6670.48 2549.8 6697.04 2501.53C6723.6 2453.26 6738.64 2399.5 6741 2344.46C6714.6 2032.94 6412.58 1714.02 6018.69 1496.49L5960.08 1465.34C5926.82 1494.9 5893.56 1525.53 5858.71 1551.93C5851.04 1568.81 5845.37 1586.53 5841.81 1604.73C5818.09 1712.35 5812.74 1823.21 5825.97 1932.62Z" fill="#455A64"/>
<path d="M4292.65 1784.25C4291.3 1907.59 4318.77 2029.55 4372.88 2140.4C4426.99 2251.25 4506.25 2347.93 4604.33 2422.73C4702.41 2497.53 4816.61 2548.39 4937.83 2571.25C5059.05 2594.11 5183.92 2588.34 5302.52 2554.4C5421.11 2520.46 5530.13 2459.29 5620.9 2375.77C5711.67 2292.24 5781.68 2188.67 5825.34 2073.3C5869 1957.93 5885.11 1833.96 5872.39 1711.27C5859.66 1588.58 5818.46 1470.55 5752.05 1366.6C5276.85 1177.57 4736.7 1144.84 4387.17 1419.4C4326.76 1531.64 4294.34 1656.8 4292.65 1784.25Z" fill="#455A64"/>
<path d="M6379.84 2820.19C6335.92 2841.37 6286.46 2848.23 6238.43 2839.8C6190.4 2831.37 6146.23 2808.07 6112.15 2773.2L6078.36 3678.72C6008.44 3811.83 5897.29 3918.71 5761.55 3983.38C5544.02 4077.36 5297.44 3999.22 5078.85 4239.46C4905.66 3972.82 4809.04 3840.29 5072.51 3617.47L5082.02 3349.25C4979.69 3357.59 4876.81 3356.35 4774.72 3345.55C4580.41 3313.87 4457.92 3158.64 4401.95 2947.96C4310.61 2608.46 4336.48 2103.16 4471.12 1444.21C4690.24 1276.31 5405.68 1255.19 5861.35 1549.82C5836.53 1936.84 5942.66 2109.5 5941.08 2249.95C5961.75 2291.46 5990.05 2328.72 6024.5 2359.77C6095.25 2421.55 6154.39 2262.62 6214.58 2201.37C6245.69 2179.03 6281.45 2164 6319.18 2157.4C6356.91 2150.8 6395.64 2152.81 6432.49 2163.26C6469.34 2173.72 6503.35 2192.36 6531.99 2217.79C6560.63 2243.22 6583.17 2274.79 6597.91 2310.14C6692.42 2517.64 6513.96 2768.97 6379.84 2820.19Z" fill="#FFA8A7"/>
<path d="M5079.9 3349.25C5312.23 3339.74 5633.25 3255.79 5731.46 3150.19C5807.49 3056.26 5871.19 2952.99 5921.01 2842.89C5921.01 2842.89 5898.84 3124.85 5769.47 3255.79C5640.11 3386.73 5347.07 3471.21 5074.62 3492.86L5079.9 3349.25Z" fill="#F28F8F"/>
<path d="M5076.74 4239.46C5189.73 4171.35 5437.89 4053.07 5560.91 4186.66C5683.94 4320.24 5749.94 4355.09 5831.78 4331.33C5913.62 4307.57 6246.79 4025.09 6365.59 3895.73C6484.39 3766.37 6460.1 3707.23 6460.1 3707.23C6400.3 3627.61 6335.21 3552.12 6265.27 3481.25C6180.26 3402.05 6159.67 3381.45 6091.03 3375.65L6084.16 3507.12C6084.16 3507.12 6037.7 3609.02 5834.42 3745.78C5631.14 3882.53 5224.58 3922.13 5076.74 4239.46Z" fill="#37474F"/>
<path d="M5076.74 4239.46C5009.68 4178.21 4865.54 4025.09 4754.66 4055.71C4643.77 4086.34 4596.25 4152.86 4596.25 4094.26C4596.25 4035.65 4691.29 3823.92 4775.25 3700.37C4859.2 3576.81 5005.46 3452.73 5078.85 3440.59L5072.51 3617.47C5072.51 3617.47 4941.57 3788.01 4956.35 3887.28C4971.14 3986.54 5063.54 4143.36 5076.74 4239.46Z" fill="#37474F"/>
<path d="M4414.62 1397.75C4425.49 1426.84 4442.41 1453.29 4464.25 1475.37C4484.69 1516.61 4509.47 1555.55 4538.17 1591.53C4583.08 1620.45 4635.81 1634.84 4689.18 1632.71C4758.88 1640.63 4791.62 1685.51 4851.81 1707.69C4929.57 1732.63 5013.61 1729.64 5089.41 1699.24C5164.38 1672.31 5244.11 1612.12 5236.72 1532.39C5264.14 1574.1 5302.59 1607.39 5347.8 1628.55C5393.01 1649.71 5443.21 1657.91 5492.8 1652.25C5533.74 1648.8 5573.18 1635.21 5607.56 1612.72C5641.94 1590.23 5670.18 1559.54 5689.75 1523.42C5707.86 1546.54 5730.91 1565.33 5757.22 1578.39C5783.54 1591.46 5812.44 1598.47 5841.81 1598.92C5859.64 1599.66 5877.47 1597.52 5894.61 1592.58C5920.58 1585.09 5944.75 1572.38 5965.63 1555.22C5986.51 1538.06 6003.67 1516.82 6016.05 1492.79L5957.44 1461.64C5454.79 1200.81 4818.54 1107.88 4414.62 1397.75Z" fill="#455A64"/>
<path d="M5244.64 2215.63C5245.16 2232.69 5250.68 2249.22 5260.52 2263.18C5270.35 2277.13 5284.07 2287.88 5299.97 2294.11C5315.87 2300.33 5333.24 2301.74 5349.93 2298.17C5366.63 2294.6 5381.91 2286.21 5393.87 2274.03C5405.83 2261.85 5413.96 2246.43 5417.23 2229.67C5420.5 2212.92 5418.77 2195.57 5412.27 2179.79C5405.77 2164 5394.77 2150.48 5380.64 2140.89C5366.52 2131.31 5349.89 2126.08 5332.82 2125.87C5321.12 2125.93 5309.56 2128.31 5298.79 2132.87C5288.02 2137.42 5278.25 2144.06 5270.06 2152.41C5261.86 2160.75 5255.4 2170.63 5251.04 2181.48C5246.68 2192.33 5244.5 2203.93 5244.64 2215.63Z" fill="#263238"/>
<path d="M5362.91 1915.72L5548.24 2021.32C5561.73 1995.84 5564.87 1966.13 5557 1938.4C5549.13 1910.66 5530.86 1887.03 5506 1872.42C5493.77 1865.86 5480.36 1861.77 5466.54 1860.39C5452.72 1859.01 5438.77 1860.37 5425.48 1864.39C5412.19 1868.42 5399.82 1875.02 5389.08 1883.83C5378.35 1892.63 5369.46 1903.47 5362.91 1915.72Z" fill="#263238"/>
<path d="M4517.58 1952.15L4718.22 1876.65C4713.66 1863.54 4706.55 1851.45 4697.31 1841.09C4688.07 1830.73 4676.88 1822.29 4664.37 1816.25C4651.87 1810.22 4638.29 1806.72 4624.43 1805.93C4610.57 1805.15 4596.69 1807.12 4583.58 1811.71C4556.73 1822.26 4534.93 1842.69 4522.66 1868.81C4510.39 1894.92 4508.57 1924.74 4517.58 1952.15Z" fill="#263238"/>
<path d="M4573.02 2169.16C4572.6 2180.8 4574.5 2192.41 4578.62 2203.31C4582.73 2214.21 4588.98 2224.18 4596.99 2232.63C4605.01 2241.09 4614.63 2247.86 4625.29 2252.56C4635.95 2257.25 4647.44 2259.77 4659.09 2259.98C4677.08 2260.82 4694.91 2256.26 4710.29 2246.89C4725.67 2237.52 4737.9 2223.76 4745.4 2207.39C4752.9 2191.01 4755.33 2172.77 4752.38 2155C4749.43 2137.23 4741.23 2120.76 4728.84 2107.68C4716.46 2094.61 4700.44 2085.54 4682.86 2081.64C4665.27 2077.74 4646.93 2079.19 4630.17 2085.8C4613.42 2092.41 4599.02 2103.88 4588.84 2118.74C4578.66 2133.59 4573.15 2151.15 4573.02 2169.16Z" fill="#263238"/>
<path d="M5031.33 2019.21L4973.78 2574.14L4683.38 2464.31L5031.33 2019.21Z" fill="#F28F8F"/>
<path d="M5248.34 2737.29L4878.74 2816.49C4882.84 2841.27 4891.9 2864.96 4905.39 2886.15C4918.87 2907.33 4936.5 2925.57 4957.21 2939.78C4977.93 2953.98 5001.29 2963.85 5025.92 2968.8C5050.54 2973.74 5075.91 2973.66 5100.5 2968.56C5150.25 2956.58 5193.43 2925.81 5220.99 2882.7C5248.55 2839.58 5258.35 2787.47 5248.34 2737.29Z" fill="#B16668"/>
<path d="M5203.46 2797.48C5218.89 2795.63 5234.49 2795.63 5249.92 2797.48C5245.57 2838.01 5228.68 2876.17 5201.61 2906.65C5174.54 2937.12 5138.64 2958.39 5098.91 2967.5C5078.84 2971.17 5058.27 2971.17 5038.19 2967.5C5039.08 2923.5 5056.63 2881.47 5087.31 2849.91C5117.98 2818.35 5159.5 2799.62 5203.46 2797.48Z" fill="#F28F8F"/>
<path d="M5673.91 8142.44C5736.74 8114.99 5802.74 8094.4 5865.57 8066.41C5918.39 8042.64 5969.7 8015.66 6019.22 7985.63C6028.72 7979.29 6060.93 7949.72 6072.02 7950.25C5989.4 7951.05 5906.98 7942.01 5826.5 7923.32C5789.86 7915.89 5757.38 7894.9 5735.55 7864.56C5713.72 7834.21 5704.15 7796.74 5708.75 7759.64C5716.15 7727.96 5792.71 7752.25 5919.96 7726.38C6083.64 7692.59 6190.29 7647.18 6370.87 7656.15C6438.14 7659.88 6504.44 7638.85 6557.25 7597.02C6852.41 7358.36 7541.45 6677.77 7541.45 6677.77L8389.95 6978.2C8348.76 7198.91 8372 7193.1 7962.79 7470.3C7661.83 7674.63 7528.25 7709.48 7148.62 7998.3C6964.87 8138.22 6779.01 8317.74 6629.59 8425.98C6507.94 8519.13 6377.21 8599.8 6239.4 8666.75C6119.01 8722.72 6003.91 8772.35 5879.3 8700.54C5825.6 8664.04 5767.84 8633.91 5707.17 8610.78C5649.62 8595.47 5578.87 8595.47 5548.77 8545.84C5532.93 8522.08 5530.29 8493.04 5513.92 8468.22C5489.63 8434.43 5443.17 8427.04 5404.1 8412.78C5365.03 8398.53 5323.31 8362.62 5335.46 8322.49C5343.38 8296.62 5370.83 8282.36 5395.65 8269.69L5650.67 8151.95C5658.25 8148.39 5666.01 8145.22 5673.91 8142.44Z" fill="#FFA8A7"/>
<path d="M6899.4 3898.37C7088.31 3923.13 7268.98 3991.06 7427.4 4096.9C7621.18 4231.54 7744.2 4519.3 7984.97 5131.78C8327.64 6007.21 8472.84 6549.46 8450.67 6874.19C8450.67 6874.19 8155.52 6563.19 7538.81 6821.38L6766.87 5474.45C6766.87 5474.45 6447.96 4776.96 6899.4 3898.37Z" fill="#37474F"/>
<path d="M7363.51 6851.48C7363.51 6851.48 7326.02 6810.3 7386.74 6733.74C7439.54 6668.79 7361.4 6582.2 7406.28 6558.44C7562.42 6445.52 7754.82 6394.37 7946.43 6414.82C8214.12 6439.64 8418.46 6553.69 8444.86 6595.4C8471.26 6637.11 8507.69 7114.43 8320.78 7242.73C8311.47 7250.48 8300.67 7256.21 8289.03 7259.58C8277.4 7262.94 8265.2 7263.86 8253.2 7262.27L8291.21 7227.95C8291.21 7227.95 8208.84 7069.55 7912.11 6945.99C7569.96 6801.85 7398.36 6817.69 7398.36 6817.69L7363.51 6851.48Z" fill="#263238"/>
</svg>
