<svg width="3143" height="600" viewBox="0 0 3143 600" fill="none" xmlns="http://www.w3.org/2000/svg">
<path d="M613.5 442.8C594.033 442.8 576.433 439.467 560.7 432.8C545.233 426.133 532.967 416.533 523.9 404C514.833 391.467 510.167 376.667 509.9 359.6H569.9C570.7 371.067 574.7 380.133 581.9 386.8C589.367 393.467 599.5 396.8 612.3 396.8C625.367 396.8 635.633 393.733 643.1 387.6C650.567 381.2 654.3 372.933 654.3 362.8C654.3 354.533 651.767 347.733 646.7 342.4C641.633 337.067 635.233 332.933 627.5 330C620.033 326.8 609.633 323.333 596.3 319.6C578.167 314.267 563.367 309.067 551.9 304C540.7 298.667 530.967 290.8 522.7 280.4C514.7 269.733 510.7 255.6 510.7 238C510.7 221.467 514.833 207.067 523.1 194.8C531.367 182.533 542.967 173.2 557.9 166.8C572.833 160.133 589.9 156.8 609.1 156.8C637.9 156.8 661.233 163.867 679.1 178C697.233 191.867 707.233 211.333 709.1 236.4H647.5C646.967 226.8 642.833 218.933 635.1 212.8C627.633 206.4 617.633 203.2 605.1 203.2C594.167 203.2 585.367 206 578.7 211.6C572.3 217.2 569.1 225.333 569.1 236C569.1 243.467 571.5 249.733 576.3 254.8C581.367 259.6 587.5 263.6 594.7 266.8C602.167 269.733 612.567 273.2 625.9 277.2C644.033 282.533 658.833 287.867 670.3 293.2C681.767 298.533 691.633 306.533 699.9 317.2C708.167 327.867 712.3 341.867 712.3 359.2C712.3 374.133 708.433 388 700.7 400.8C692.967 413.6 681.633 423.867 666.7 431.6C651.767 439.067 634.033 442.8 613.5 442.8ZM883.25 443.6C861.917 443.6 842.717 438.933 825.65 429.6C808.583 420 795.117 406.533 785.25 389.2C775.65 371.867 770.85 351.867 770.85 329.2C770.85 306.533 775.783 286.533 785.65 269.2C795.783 251.867 809.517 238.533 826.85 229.2C844.183 219.6 863.517 214.8 884.85 214.8C906.183 214.8 925.517 219.6 942.85 229.2C960.183 238.533 973.783 251.867 983.65 269.2C993.783 286.533 998.85 306.533 998.85 329.2C998.85 351.867 993.65 371.867 983.25 389.2C973.117 406.533 959.25 420 941.65 429.6C924.317 438.933 904.85 443.6 883.25 443.6ZM883.25 394.8C893.383 394.8 902.85 392.4 911.65 387.6C920.717 382.533 927.917 375.067 933.25 365.2C938.583 355.333 941.25 343.333 941.25 329.2C941.25 308.133 935.65 292 924.45 280.8C913.517 269.333 900.05 263.6 884.05 263.6C868.05 263.6 854.583 269.333 843.65 280.8C832.983 292 827.65 308.133 827.65 329.2C827.65 350.267 832.85 366.533 843.25 378C853.917 389.2 867.25 394.8 883.25 394.8ZM1092.33 192C1082.46 192 1074.19 188.933 1067.53 182.8C1061.13 176.4 1057.93 168.533 1057.93 159.2C1057.93 149.867 1061.13 142.133 1067.53 136C1074.19 129.6 1082.46 126.4 1092.33 126.4C1102.19 126.4 1110.33 129.6 1116.73 136C1123.39 142.133 1126.73 149.867 1126.73 159.2C1126.73 168.533 1123.39 176.4 1116.73 182.8C1110.33 188.933 1102.19 192 1092.33 192ZM1119.93 218.4V440H1063.93V218.4H1119.93ZM1255.26 144V440H1199.26V144H1255.26ZM1390.58 160.8V440H1334.58V160.8H1390.58ZM1592.71 215.2C1619.11 215.2 1640.45 223.6 1656.71 240.4C1672.98 256.933 1681.11 280.133 1681.11 310V440H1625.11V317.6C1625.11 300 1620.71 286.533 1611.91 277.2C1603.11 267.6 1591.11 262.8 1575.91 262.8C1560.45 262.8 1548.18 267.6 1539.11 277.2C1530.31 286.533 1525.91 300 1525.91 317.6V440H1469.91V218.4H1525.91V246C1533.38 236.4 1542.85 228.933 1554.31 223.6C1566.05 218 1578.85 215.2 1592.71 215.2ZM1823.57 264.4V371.6C1823.57 379.067 1825.3 384.533 1828.77 388C1832.5 391.2 1838.63 392.8 1847.17 392.8H1873.17V440H1837.97C1790.77 440 1767.17 417.067 1767.17 371.2V264.4H1740.77V218.4H1767.17V163.6H1823.57V218.4H1873.17V264.4H1823.57ZM2143.44 324.4C2143.44 332.4 2142.91 339.6 2141.84 346H1979.84C1981.18 362 1986.78 374.533 1996.64 383.6C2006.51 392.667 2018.64 397.2 2033.04 397.2C2053.84 397.2 2068.64 388.267 2077.44 370.4H2137.84C2131.44 391.733 2119.18 409.333 2101.04 423.2C2082.91 436.8 2060.64 443.6 2034.24 443.6C2012.91 443.6 1993.71 438.933 1976.64 429.6C1959.84 420 1946.64 406.533 1937.04 389.2C1927.71 371.867 1923.04 351.867 1923.04 329.2C1923.04 306.267 1927.71 286.133 1937.04 268.8C1946.38 251.467 1959.44 238.133 1976.24 228.8C1993.04 219.467 2012.38 214.8 2034.24 214.8C2055.31 214.8 2074.11 219.333 2090.64 228.4C2107.44 237.467 2120.38 250.4 2129.44 267.2C2138.78 283.733 2143.44 302.8 2143.44 324.4ZM2085.44 308.4C2085.18 294 2079.98 282.533 2069.84 274C2059.71 265.2 2047.31 260.8 2032.64 260.8C2018.78 260.8 2007.04 265.067 1997.44 273.6C1988.11 281.867 1982.38 293.467 1980.24 308.4H2085.44ZM2264.32 144V440H2208.32V144H2264.32ZM2399.65 144V440H2343.65V144H2399.65ZM2684.98 324.4C2684.98 332.4 2684.44 339.6 2683.38 346H2521.38C2522.71 362 2528.31 374.533 2538.18 383.6C2548.04 392.667 2560.18 397.2 2574.58 397.2C2595.38 397.2 2610.18 388.267 2618.98 370.4H2679.38C2672.98 391.733 2660.71 409.333 2642.58 423.2C2624.44 436.8 2602.18 443.6 2575.78 443.6C2554.44 443.6 2535.24 438.933 2518.18 429.6C2501.38 420 2488.18 406.533 2478.58 389.2C2469.24 371.867 2464.57 351.867 2464.57 329.2C2464.57 306.267 2469.24 286.133 2478.58 268.8C2487.91 251.467 2500.98 238.133 2517.78 228.8C2534.58 219.467 2553.91 214.8 2575.78 214.8C2596.84 214.8 2615.64 219.333 2632.18 228.4C2648.98 237.467 2661.91 250.4 2670.98 267.2C2680.31 283.733 2684.98 302.8 2684.98 324.4ZM2626.98 308.4C2626.71 294 2621.51 282.533 2611.38 274C2601.24 265.2 2588.84 260.8 2574.18 260.8C2560.31 260.8 2548.58 265.067 2538.98 273.6C2529.64 281.867 2523.91 293.467 2521.78 308.4H2626.98ZM2735.45 329.2C2735.45 306.267 2740.12 286.267 2749.45 269.2C2758.78 251.867 2771.72 238.533 2788.25 229.2C2804.78 219.6 2823.72 214.8 2845.05 214.8C2872.52 214.8 2895.18 221.733 2913.05 235.6C2931.18 249.2 2943.32 268.4 2949.45 293.2H2889.05C2885.85 283.6 2880.38 276.133 2872.65 270.8C2865.18 265.2 2855.85 262.4 2844.65 262.4C2828.65 262.4 2815.98 268.267 2806.65 280C2797.32 291.467 2792.65 307.867 2792.65 329.2C2792.65 350.267 2797.32 366.667 2806.65 378.4C2815.98 389.867 2828.65 395.6 2844.65 395.6C2867.32 395.6 2882.12 385.467 2889.05 365.2H2949.45C2943.32 389.2 2931.18 408.267 2913.05 422.4C2894.92 436.533 2872.25 443.6 2845.05 443.6C2823.72 443.6 2804.78 438.933 2788.25 429.6C2771.72 420 2758.78 406.667 2749.45 389.6C2740.12 372.267 2735.45 352.133 2735.45 329.2ZM3079.68 264.4V371.6C3079.68 379.067 3081.41 384.533 3084.88 388C3088.61 391.2 3094.74 392.8 3103.28 392.8H3129.28V440H3094.08C3046.88 440 3023.28 417.067 3023.28 371.2V264.4H2996.88V218.4H3023.28V163.6H3079.68V218.4H3129.28V264.4H3079.68Z" fill="#00ED64"/>
<path fill-rule="evenodd" clip-rule="evenodd" d="M316.633 139.742C314.934 140.498 307.822 143.317 300.829 146.005C266.458 159.218 229.507 171.01 191.044 181.039C181.456 183.539 170.801 186.573 167.367 187.78C117.81 205.21 73.6157 236.331 59.9482 286.5C54.758 305.552 47.3165 303.904 47 370L59.5 439.5L71 436C131.352 394.115 198.902 353.385 245.5 296.567C273.192 262.804 285.299 210.312 303.636 174.717C310.054 162.26 320.85 139.615 320.85 138.61C320.85 138.035 319.887 138.294 316.633 139.742Z" fill="#00ED64"/>
<path fill-rule="evenodd" clip-rule="evenodd" d="M153.071 65.9009C131.205 89.6091 98.4719 120.939 72.0503 143.448C50.7602 161.585 46.2262 165.791 39.3154 173.81C14.7255 202.343 1.33619 236.566 0.101957 274.041C-0.66098 297.22 2.83726 317.509 11.2904 338.929C12.5194 342.043 23.9026 366.058 36.5861 392.296L59.6479 440L60.0876 379.893C60.5709 313.822 60.4589 315.511 65.6198 296.566C79.2873 246.397 117.811 205.209 167.367 187.78C170.801 186.572 181.456 183.539 191.044 181.04C212.607 175.42 229.332 170.648 230.117 169.891C230.741 169.29 227.501 159.797 222.801 148.454C216.163 132.433 203.51 109.296 192.821 93.6357C187.166 85.3494 164.623 55.2739 163.865 55.0018C163.558 54.8921 158.701 59.7967 153.071 65.9009ZM317.826 145.777C311.789 159.022 296.365 188.918 289.711 200.272C275.007 225.363 251.507 258.918 231.857 282.876C184.122 341.078 125.54 394.77 62.2539 438.322C60.4957 439.532 62.0209 439.6 91.6311 439.638C122.824 439.677 135.433 439.119 151.726 436.978C227.995 426.96 282.143 392.643 311.004 336.033C327.294 304.082 334.478 268.641 333.401 225.537C332.793 201.193 330.911 186.697 323.925 152.542L321.081 138.636L317.826 145.777Z" fill="#00ED64"/>
</svg>
